<?xml version="1.0" encoding="UTF-8"?>
<svg version="1.1" xmlns="http://www.w3.org/2000/svg" width="540" height="540">
<path d="M0 0 C178.2 0 356.4 0 540 0 C540 178.2 540 356.4 540 540 C361.8 540 183.6 540 0 540 C0 361.8 0 183.6 0 0 Z " fill="#F1EBCD" transform="translate(0,0)"/>
<path d="M0 0 C5.66196196 4.1072429 8.87833228 9.19705539 10.625 15.9375 C10.93119644 19.37892924 10.94971983 22.79667578 10.9375 26.25 C10.95361328 27.14912109 10.96972656 28.04824219 10.98632812 28.97460938 C10.99206004 36.90184343 9.78581165 44.35073438 4.25 50.375 C3.40308594 51.33212891 3.40308594 51.33212891 2.5390625 52.30859375 C-2.47573015 56.57628464 -7.9722362 56.37654202 -14.27734375 56.234375 C-18.51129762 55.82859884 -20.42451276 55.0355116 -23.375 51.9375 C-26.06637623 47.49857263 -28.27837454 43.03150212 -29.375 37.9375 C-29.3028125 38.47632813 -29.230625 39.01515625 -29.15625 39.5703125 C-27.98058494 49.98801124 -28.28497152 60.47065031 -28.375 70.9375 C-29.695 70.9375 -31.015 70.9375 -32.375 70.9375 C-31.88 71.80375 -31.385 72.67 -30.875 73.5625 C-29.375 77.9375 -29.375 77.9375 -29.375 91.9375 C-41.585 91.9375 -53.795 91.9375 -66.375 91.9375 C-65.01950224 101.38095198 -65.01950224 101.38095198 -59.375 106.9375 C-55.91748509 108.66625745 -52.16210724 108.28536254 -48.375 107.9375 C-45.38118942 106.83109174 -43.95215141 105.98899042 -42.41015625 103.1796875 C-41.65628691 101.46350569 -41.00755758 99.70200273 -40.375 97.9375 C-36.415 98.2675 -32.455 98.5975 -28.375 98.9375 C-28.86598251 106.05674635 -30.40604222 110.19692359 -35.8125 115.1875 C-43.18061182 120.21938124 -51.78473139 119.74335293 -60.375 118.9375 C-66.55670761 117.64706854 -71.31117829 115.13830973 -75.125 110.03515625 C-80.55669701 100.9200897 -82.00637466 91.32212493 -79.71484375 80.94921875 C-77.21861492 73.13634669 -72.90515414 66.82370486 -65.875 62.4375 C-58.97426937 59.3539058 -49.49957608 60.15635598 -42.375 61.9375 C-42.375 41.1475 -42.375 20.3575 -42.375 -1.0625 C-38.415 -1.0625 -34.455 -1.0625 -30.375 -1.0625 C-29.88 5.8675 -29.88 5.8675 -29.375 12.9375 C-28.653125 11.37 -27.93125 9.8025 -27.1875 8.1875 C-25.13370376 4.0857092 -23.42110606 1.32366511 -19.375 -1.0625 C-13.0450444 -3.02790377 -5.84014432 -3.38639547 0 0 Z " fill="#7A5BFD" transform="translate(309.375,232.0625)"/>
<path d="M0 0 C4.62 0 9.24 0 14 0 C14 24.42 14 48.84 14 74 C13.34 74 12.68 74 12 74 C12 94.79 12 115.58 12 137 C8.37 137 4.74 137 1 137 C1 131.39 1 125.78 1 120 C0.34 120 -0.32 120 -1 120 C-1.07476562 120.56847656 -1.14953125 121.13695312 -1.2265625 121.72265625 C-2.26806169 127.83891128 -4.26351648 131.90940059 -9 136 C-14.05292307 139.2844 -20.22521166 138.56954841 -26 138 C-31.54139583 135.48118371 -36.36440739 130.58958058 -38.91552734 124.99072266 C-40.82169774 119.42714338 -41.51162796 114.43176075 -41.4375 108.5625 C-41.43137695 107.73282715 -41.42525391 106.9031543 -41.41894531 106.04833984 C-41.20370742 97.60604755 -39.232401 90.0543324 -33 84 C-27.64215185 79.78211954 -22.93738457 79.25474549 -16.1640625 79.49609375 C-11.20985498 80.28509717 -8.18949541 82.16006696 -5 86 C-2.29900117 90.38623741 -0.32254294 94.74970775 -1 100 C-0.34 100 0.32 100 1 100 C0.78615662 99.02024956 0.78615662 99.02024956 0.56799316 98.02070618 C-0.87546155 90.87962196 -1.25731158 84.12604866 -1.15625 76.85546875 C-1.14815308 75.69991989 -1.14005615 74.54437103 -1.13171387 73.35380554 C-1.10064133 69.56894716 -1.05222871 65.78462258 -1 62 C-0.97534668 60.03670746 -0.97534668 60.03670746 -0.95019531 58.03375244 C-0.83762014 49.15711765 -0.6922578 40.28118004 -0.53643799 31.4052124 C-0.47442614 27.84373776 -0.41508362 24.28221855 -0.35546875 20.72070312 C-0.23948636 13.81375779 -0.1204705 6.9068685 0 0 Z " fill="#202022" transform="translate(329,213)"/>
<path d="M0 0 C4.45111199 1.8613741 6.25789941 4.03151156 8.3125 8.25 C10.01436817 12.50820127 10.66835904 16.43993679 11 21 C11.08636719 20.443125 11.17273438 19.88625 11.26171875 19.3125 C12.61274749 11.97480261 15.20510084 6.72673089 20.5625 1.5 C25.76017514 -0.76807642 30.4329882 -1.07254356 36 0 C41.60443241 2.95863976 44.21846853 6.76949794 46.36915588 12.68310547 C47.47908543 16.75953199 47.36705413 20.77062644 47.29296875 24.96875 C47.28872391 25.88966431 47.28447906 26.81057861 47.28010559 27.75939941 C47.26344065 30.67324245 47.22581188 33.58636939 47.1875 36.5 C47.17243739 38.48696911 47.15875175 40.47394917 47.14648438 42.4609375 C47.11357716 47.30756357 47.06188031 52.15366078 47 57 C42.71 57 38.42 57 34 57 C33.98541748 55.94611084 33.97083496 54.89222168 33.95581055 53.80639648 C33.89755055 49.87181787 33.82032096 45.93779507 33.73754883 42.00366211 C33.70442917 40.30551214 33.67635739 38.60725552 33.65356445 36.90893555 C33.61977831 34.45836213 33.56745361 32.00875469 33.51171875 29.55859375 C33.50532883 28.80726669 33.4989389 28.05593964 33.49235535 27.28184509 C33.35557293 22.30496226 32.72096774 16.72096774 29 13 C24.75165901 12.50980681 22.72568665 12.45573501 19.25 15.0625 C14.87148356 20.77889646 13.63161747 25.54545 13.48828125 32.68359375 C13.47033005 33.38396255 13.45237885 34.08433136 13.43388367 34.80592346 C13.38022445 37.01638989 13.34603068 39.22664612 13.3125 41.4375 C13.27928743 42.94729461 13.24479419 44.45706163 13.20898438 45.96679688 C13.12214003 49.64455397 13.06170016 53.3213938 13 57 C8.38 57 3.76 57 -1 57 C-1.029729 55.25928223 -1.029729 55.25928223 -1.06005859 53.48339844 C-1.13617912 49.17442266 -1.22488666 44.86578172 -1.31738281 40.55712891 C-1.3556459 38.69293838 -1.39050346 36.8286747 -1.421875 34.96435547 C-1.46758356 32.28326284 -1.52556822 29.60267267 -1.5859375 26.921875 C-1.59748871 26.08944275 -1.60903992 25.2570105 -1.62094116 24.39935303 C-1.67852826 18.88974919 -1.67852826 18.88974919 -4 14 C-7.17878694 12.41060653 -9.4956772 12.58423289 -13 13 C-20.00059868 19.68946096 -21.0062125 27.18637508 -21.31640625 36.4921875 C-21.35830078 37.69101562 -21.40019531 38.88984375 -21.44335938 40.125 C-21.48267578 41.3625 -21.52199219 42.6 -21.5625 43.875 C-21.60568359 45.13570313 -21.64886719 46.39640625 -21.69335938 47.6953125 C-21.79909044 50.79675708 -21.90001588 53.89836483 -22 57 C-26.29 57 -30.58 57 -35 57 C-35 38.52 -35 20.04 -35 1 C-31.37 1 -27.74 1 -24 1 C-23.67 7.27 -23.34 13.54 -23 20 C-22.505 17.999375 -22.01 15.99875 -21.5 13.9375 C-19.75991706 8.3837858 -18.04078653 4.64361437 -13.34765625 1.1171875 C-8.91552851 -0.99194483 -4.75482773 -0.88834454 0 0 Z " fill="#795AFD" transform="translate(210,230)"/>
<path d="M0 0 C6.19501586 4.5725117 7.19880073 10.54382709 8.328125 17.77734375 C8.47507812 18.84662109 8.47507812 18.84662109 8.625 19.9375 C8.71136719 19.380625 8.79773438 18.82375 8.88671875 18.25 C10.23774749 10.91230261 12.83010084 5.66423089 18.1875 0.4375 C23.38517514 -1.83057642 28.0579882 -2.13504356 33.625 -1.0625 C39.22943241 1.89613976 41.84346853 5.70699794 43.99415588 11.62060547 C45.10408543 15.69703199 44.99205413 19.70812644 44.91796875 23.90625 C44.91372391 24.82716431 44.90947906 25.74807861 44.90510559 26.69689941 C44.88844065 29.61074245 44.85081188 32.52386939 44.8125 35.4375 C44.79743739 37.42446911 44.78375175 39.41144917 44.77148438 41.3984375 C44.73857716 46.24506357 44.68688031 51.09116078 44.625 55.9375 C40.335 55.9375 36.045 55.9375 31.625 55.9375 C31.595271 54.40210571 31.595271 54.40210571 31.56494141 52.83569336 C31.48847278 49.01302825 31.39982133 45.19072345 31.30761719 41.3684082 C31.26949701 39.71874135 31.2346155 38.06899618 31.203125 36.41918945 C31.1571034 34.03829079 31.09917365 31.65792348 31.0390625 29.27734375 C31.02751129 28.54789047 31.01596008 27.81843719 31.00405884 27.06687927 C30.85024566 21.64658248 30.63225632 15.94475632 26.625 11.9375 C22.34933417 11.37278942 20.37136128 11.37772904 16.875 14 C12.49648356 19.71639646 11.25661747 24.48295 11.11328125 31.62109375 C11.09533005 32.32146255 11.07737885 33.02183136 11.05888367 33.74342346 C11.00522445 35.95388989 10.97103068 38.16414612 10.9375 40.375 C10.90428743 41.88479461 10.86979419 43.39456163 10.83398438 44.90429688 C10.74714003 48.58205397 10.68670016 52.2588938 10.625 55.9375 C6.005 55.9375 1.385 55.9375 -3.375 55.9375 C-3.404729 54.19678223 -3.404729 54.19678223 -3.43505859 52.42089844 C-3.51117912 48.11192266 -3.59988666 43.80328172 -3.69238281 39.49462891 C-3.7306459 37.63043838 -3.76550346 35.7661747 -3.796875 33.90185547 C-3.84258356 31.22076284 -3.90056822 28.54017267 -3.9609375 25.859375 C-3.97248871 25.02694275 -3.98403992 24.1945105 -3.99594116 23.33685303 C-4.05352826 17.82724919 -4.05352826 17.82724919 -6.375 12.9375 C-9.55378694 11.34810653 -11.8706772 11.52173289 -15.375 11.9375 C-22.37559868 18.62696096 -23.3812125 26.12387508 -23.69140625 35.4296875 C-23.73330078 36.62851562 -23.77519531 37.82734375 -23.81835938 39.0625 C-23.85767578 40.3 -23.89699219 41.5375 -23.9375 42.8125 C-23.98068359 44.07320313 -24.02386719 45.33390625 -24.06835938 46.6328125 C-24.17409044 49.73425708 -24.27501588 52.83586483 -24.375 55.9375 C-28.665 55.9375 -32.955 55.9375 -37.375 55.9375 C-37.375 37.4575 -37.375 18.9775 -37.375 -0.0625 C-33.745 -0.0625 -30.115 -0.0625 -26.375 -0.0625 C-26.045 6.2075 -25.715 12.4775 -25.375 18.9375 C-24.88 16.936875 -24.385 14.93625 -23.875 12.875 C-22.12869593 7.28194221 -20.3733797 3.59742914 -15.65625 0.05078125 C-10.38207529 -2.52308826 -5.4233763 -1.70735921 0 0 Z " fill="#212123" transform="translate(176.375,294.0625)"/>
<path d="M0 0 C5.08312442 3.17555013 8.57567108 7.62109121 10.3125 13.375 C10.57891267 16.60271392 10.54523194 19.81403653 10.5078125 23.05078125 C10.5049826 23.9759404 10.50215271 24.90109955 10.49923706 25.85429382 C10.48807392 28.79882942 10.46297637 31.74305688 10.4375 34.6875 C10.42746521 36.68814664 10.41834023 38.68879806 10.41015625 40.68945312 C10.38814722 45.5847535 10.35364391 50.47982457 10.3125 55.375 C6.6825 55.375 3.0525 55.375 -0.6875 55.375 C-0.6875 50.095 -0.6875 44.815 -0.6875 39.375 C-1.3475 39.375 -2.0075 39.375 -2.6875 39.375 C-2.7803125 40.6434375 -2.7803125 40.6434375 -2.875 41.9375 C-4.06724217 46.98160148 -6.2915192 50.44348829 -10.33984375 53.70703125 C-16.30666289 57.27703086 -22.93790998 57.24506434 -29.6875 56.375 C-34.33066475 54.21352675 -36.42807674 51.90024715 -38.6875 47.375 C-39.12109375 44.21875 -39.12109375 44.21875 -39.125 40.875 C-39.14433594 39.7715625 -39.16367187 38.668125 -39.18359375 37.53125 C-38.56578874 33.60064804 -37.53138051 32.140524 -34.6875 29.375 C-28.83590668 25.20288996 -22.79174932 24.04070857 -15.8125 22.6875 C-13.73115954 22.2699628 -11.65039297 21.84955086 -9.5703125 21.42578125 C-8.65652832 21.24700439 -7.74274414 21.06822754 -6.80126953 20.8840332 C-4.71458038 20.57604798 -4.71458038 20.57604798 -3.6875 19.375 C-3.86317358 15.89444126 -3.86317358 15.89444126 -4.6875 12.375 C-9.13902897 9.40731402 -13.46893886 9.61968194 -18.6875 10.375 C-21.81662033 12.62796664 -23.22907218 14.07024389 -24.5 17.6875 C-24.561875 18.244375 -24.62375 18.80125 -24.6875 19.375 C-33.25892857 19.51785714 -33.25892857 19.51785714 -36.6875 18.375 C-37.26193724 13.7795021 -36.93756827 11.12861211 -34.3125 7.25 C-26.23262163 -2.36355899 -11.52527257 -5.18309222 0 0 Z " fill="#212123" transform="translate(412.6875,294.625)"/>
<path d="M0 0 C4.45570863 3.61610682 7.29349146 8.29844314 9.09375 13.69921875 C9.09375 18.31921875 9.09375 22.93921875 9.09375 27.69921875 C-3.11625 27.69921875 -15.32625 27.69921875 -27.90625 27.69921875 C-26.55075224 37.14267073 -26.55075224 37.14267073 -20.90625 42.69921875 C-17.44873509 44.4279762 -13.69335724 44.04708129 -9.90625 43.69921875 C-6.91243942 42.59281049 -5.48340141 41.75070917 -3.94140625 38.94140625 C-3.18753691 37.22522444 -2.53880758 35.46372148 -1.90625 33.69921875 C2.05375 34.02921875 6.01375 34.35921875 10.09375 34.69921875 C9.60276749 41.8184651 8.06270778 45.95864234 2.65625 50.94921875 C-4.71186182 55.98109999 -13.31598139 55.50507168 -21.90625 54.69921875 C-28.08795761 53.40878729 -32.84242829 50.90002848 -36.65625 45.796875 C-42.08794701 36.68180845 -43.53762466 27.08384368 -41.24609375 16.7109375 C-38.74986492 8.89806544 -34.43640414 2.58542361 -27.40625 -1.80078125 C-18.87958336 -5.50009382 -7.94759194 -4.62284931 0 0 Z " fill="#212124" transform="translate(270.90625,296.30078125)"/>
<path d="M0 0 C3.27371292 2.35623924 5.95225363 4.71537787 7.83984375 8.32421875 C8.30673754 11.1908462 8.14791636 13.39752896 7.83984375 16.32421875 C4.1657359 17.49993326 0.67055192 17.39788621 -3.16015625 17.32421875 C-3.81119792 15.56640625 -4.46223958 13.80859375 -5.11328125 12.05078125 C-6.49870704 9.7658626 -7.65949623 9.224279 -10.16015625 8.32421875 C-12.6122021 7.9730046 -12.6122021 7.9730046 -15.16015625 8.01171875 C-16.00578125 7.99496094 -16.85140625 7.97820312 -17.72265625 7.9609375 C-20.66147874 8.39893508 -22.02048443 9.29128793 -24.16015625 11.32421875 C-24.91015625 13.82421875 -24.91015625 13.82421875 -24.16015625 16.32421875 C-20.05979636 19.44716727 -15.77653798 20.25675926 -10.84765625 21.26171875 C4.84476042 24.73169209 4.84476042 24.73169209 9.83984375 32.32421875 C11.44179152 35.52811428 11.19151985 38.84002032 10.83984375 42.32421875 C8.79969935 48.10462789 5.14222257 51.52520857 -0.2109375 54.44140625 C-4.61969878 55.76111492 -8.89468493 55.6928294 -13.47265625 55.69921875 C-14.38466797 55.72371094 -15.29667969 55.74820313 -16.23632812 55.7734375 C-23.01625876 55.80259849 -28.72226032 54.67170039 -33.71972656 49.80566406 C-38.14116915 44.65097018 -38.26563096 41.86365056 -38.16015625 35.32421875 C-32.71515625 34.82921875 -32.71515625 34.82921875 -27.16015625 34.32421875 C-26.28125 36.34244792 -25.40234375 38.36067708 -24.5234375 40.37890625 C-22.69733569 42.98463318 -21.20155006 43.47596874 -18.16015625 44.32421875 C-15.40026206 44.60077558 -15.40026206 44.60077558 -12.59765625 44.51171875 C-11.20353516 44.50205078 -11.20353516 44.50205078 -9.78125 44.4921875 C-7.43377523 44.3417532 -5.40961081 43.98582303 -3.16015625 43.32421875 C-3.16015625 40.68421875 -3.16015625 38.04421875 -3.16015625 35.32421875 C-4.74298334 34.88489076 -6.32646079 34.44790606 -7.91015625 34.01171875 C-8.91175781 33.73457031 -9.91335937 33.45742188 -10.9453125 33.171875 C-13.04688273 32.61775502 -15.15929782 32.10288201 -17.28125 31.6328125 C-24.69506086 29.98005212 -30.87635427 27.92580802 -36.09765625 22.19921875 C-38.36869074 18.19151082 -38.60590969 14.85604535 -38.16015625 10.32421875 C-36.30702159 5.34155565 -33.39738547 2.04024597 -28.84765625 -0.67578125 C-20.30071763 -4.45025265 -8.28908884 -4.53433843 0 0 Z " fill="#7A5AFD" transform="translate(132.16015625,232.67578125)"/>
<path d="M0 0 C4.62 0 9.24 0 14 0 C14 24.42 14 48.84 14 74 C13.34 74 12.68 74 12 74 C12 70.37 12 66.74 12 63 C7.71 63 3.42 63 -1 63 C-0.67 42.21 -0.34 21.42 0 0 Z " fill="#7B5CFB" transform="translate(329,213)"/>
<path d="M0 0 C4.31646805 2.3698256 8.00470159 4.88794019 9.5546875 9.734375 C10.99170031 17.04549281 11.12911481 24.97316926 7.19140625 31.4765625 C4.88129557 34.43047452 2.78201907 35.71386279 -0.921875 36.30859375 C-4.59382689 36.5363652 -6.57758208 36.24406369 -9.8125 34.375 C-15.22441463 28.49920697 -15.46694787 23.02879689 -15.2890625 15.35546875 C-14.82610564 9.98141551 -13.51803146 6.74803622 -9.9375 2.625 C-6.58024392 -0.19076316 -4.35480644 -0.41873139 0 0 Z " fill="#EFE9CB" transform="translate(317,304)"/>
<path d="M0 0 C3.86735779 2.81994839 5.55944579 5.50849037 7 10 C7.30078125 13.55859375 7.30078125 13.55859375 7.3125 17.4375 C7.32925781 18.71496094 7.34601563 19.99242187 7.36328125 21.30859375 C6.86367344 26.38525371 5.24721869 29.64587685 1.8125 33.375 C-1.84634482 35.48899923 -4.92841497 35.90213551 -9 35 C-13.64565517 32.19507613 -15.89608557 29.40656884 -17.53125 24.23828125 C-19.00174569 17.21666435 -18.57682451 10.31033266 -15 4 C-10.98701263 -0.86422712 -5.92165941 -1.12979028 0 0 Z " fill="#F0EACE" transform="translate(299,242)"/>
<path d="M0 0 C4.29 0 8.58 0 13 0 C13 18.48 13 36.96 13 56 C8.71 56 4.42 56 0 56 C0 37.52 0 19.04 0 0 Z " fill="#1D1D20" transform="translate(352,294)"/>
<path d="M0 0 C4.29 0 8.58 0 13 0 C13 18.48 13 36.96 13 56 C8.71 56 4.42 56 0 56 C0 37.52 0 19.04 0 0 Z " fill="#7757FE" transform="translate(151,231)"/>
<path d="M0 0 C-0.02854343 6.29382696 -1.08764 9.97505457 -5.4296875 14.58984375 C-9.2914646 18.05775802 -11.85816278 18.442214 -16.8359375 18.3125 C-19 18 -19 18 -21.5625 16.375 C-23.43910956 13.27451464 -23.59452734 11.56716403 -23 8 C-19.29203679 3.05604905 -14.2368287 1.89234217 -8.375 0.875 C-7.43398438 0.70742188 -6.49296875 0.53984375 -5.5234375 0.3671875 C-3 0 -3 0 0 0 Z " fill="#ECE6C9" transform="translate(410,323)"/>
<path d="M0 0 C3.63467079 1.62400184 4.77408696 2.66113044 7 6 C7 7.98 7 9.96 7 12 C-0.92 12 -8.84 12 -17 12 C-14.62483333 3.68691667 -14.62483333 3.68691667 -10.84375 0.87890625 C-7.30013617 -0.81031644 -3.80591491 -0.65304444 0 0 Z " fill="#EEE8CA" transform="translate(260,304)"/>
<path d="M0 0 C0.9590625 -0.00773437 1.918125 -0.01546875 2.90625 -0.0234375 C5.5 0.375 5.5 0.375 7.3125 1.71484375 C9.21291715 4.37167694 9.01647424 6.21159528 8.5 9.375 C6.38794394 11.88306657 4.78235407 13.12614713 1.52734375 13.7578125 C-1.90323409 13.95018135 -4.11342243 13.62627542 -7 11.75 C-8.93204232 8.69093299 -9.02979878 6.9322204 -8.5 3.375 C-6.11590129 0.03096716 -3.96629896 -0.03198628 0 0 Z " fill="#21202A" transform="translate(358.5,274.625)"/>
<path d="M0 0 C0.9590625 -0.00773438 1.918125 -0.01546875 2.90625 -0.0234375 C5.5 0.375 5.5 0.375 7.3125 1.71484375 C9.21291715 4.37167694 9.01647424 6.21159528 8.5 9.375 C5.77836625 12.5090025 4.11453214 13.28720969 0 13.875 C-4.11453214 13.28720969 -5.77836625 12.5090025 -8.5 9.375 C-9.01647424 6.21159528 -9.21291715 4.37167694 -7.3125 1.71484375 C-4.81921654 -0.12825157 -3.07298598 -0.02478214 0 0 Z " fill="#7C5DFC" transform="translate(157.5,211.625)"/>
<path d="M0 0 C0.99 0.495 0.99 0.495 2 1 C2.6328125 3.06640625 2.6328125 3.06640625 3.125 5.5625 C3.29257812 6.38878906 3.46015625 7.21507812 3.6328125 8.06640625 C3.75398438 8.70449219 3.87515625 9.34257812 4 10 C3.34 10 2.68 10 2 10 C1.67 10.66 1.34 11.32 1 12 C0.67 8.04 0.34 4.08 0 0 Z " fill="#D8CDD8" transform="translate(279,269)"/>
<path d="M0 0 C0.66 0.33 1.32 0.66 2 1 C1.34 3.97 0.68 6.94 0 10 C-0.33 10 -0.66 10 -1 10 C-1.02689216 8.52093108 -1.04634621 7.04172517 -1.0625 5.5625 C-1.07410156 4.73878906 -1.08570313 3.91507813 -1.09765625 3.06640625 C-1 1 -1 1 0 0 Z " fill="#E7DFD2" transform="translate(187,243)"/>
</svg>
