<?xml version="1.0" encoding="UTF-8"?>
<svg version="1.1" xmlns="http://www.w3.org/2000/svg" width="1080" height="1080">
<path d="M0 0 C1.64017175 -0.00258815 3.28034288 -0.00560255 4.92051315 -0.0090034 C9.40416644 -0.01702446 13.88780368 -0.01886023 18.3714633 -0.01960087 C23.21709841 -0.02146011 28.06272536 -0.02901197 32.90835571 -0.03573608 C43.49595528 -0.04928714 54.08355104 -0.05533966 64.67115784 -0.05974674 C71.29359008 -0.06251577 77.91602088 -0.06675442 84.53845215 -0.07125092 C102.90510974 -0.08344152 121.27176618 -0.09373985 139.63842773 -0.09712601 C140.81279373 -0.09734557 141.98715972 -0.09756514 143.19711256 -0.09779136 C144.37416525 -0.09800964 145.55121795 -0.09822791 146.7639389 -0.09845281 C149.14877828 -0.09889626 151.53361766 -0.09934282 153.91845703 -0.09979248 C155.10140004 -0.10001391 156.28434305 -0.10023534 157.50313282 -0.10046348 C176.63806225 -0.104405 195.77295346 -0.12184022 214.90786815 -0.145152 C234.59429431 -0.16894021 254.28070135 -0.18133132 273.96714211 -0.18249393 C285.00360828 -0.18340673 296.04002469 -0.18905848 307.07647705 -0.20731354 C316.48145773 -0.22281598 325.88637327 -0.22777597 335.29136431 -0.21957543 C340.07851466 -0.2157039 344.86553426 -0.21642416 349.652668 -0.23063278 C435.46227699 -0.47023892 520.3238307 25.71289164 583.12646484 86.51544189 C584.45233801 87.85113634 585.77115857 89.19390702 587.07958984 90.54669189 C588.76029563 92.29240209 588.76029563 92.29240209 591.23583984 94.14044189 C594.0302295 96.43327443 596.21523479 98.96553121 598.55224609 101.71466064 C600.5357936 103.98313762 602.59804097 106.15515388 604.68530273 108.32769775 C651.51266928 157.50603627 678.11269442 225.44989385 685.67333984 292.14044189 C685.76252898 292.90760717 685.85171812 293.67477245 685.94360995 294.46518517 C686.81054638 302.79455029 686.81909856 311.10363383 686.81378174 319.46710205 C686.81636989 321.10727381 686.81938429 322.74744493 686.82278514 324.3876152 C686.8308062 328.87126849 686.83264197 333.35490573 686.83338261 337.83856535 C686.83524185 342.68420046 686.84279371 347.52982741 686.84951782 352.37545776 C686.86306888 362.96305733 686.86912139 373.55065309 686.87352848 384.13825989 C686.87629751 390.76069213 686.88053616 397.38312293 686.88503265 404.0055542 C686.89722326 422.37221179 686.90752158 440.73886823 686.91090775 459.10552979 C686.91112731 460.27989578 686.91134688 461.45426177 686.9115731 462.66421461 C686.91179137 463.8412673 686.91200965 465.01832 686.91223454 466.23104095 C686.912678 468.61588033 686.91312456 471.00071971 686.91357422 473.38555908 C686.91379565 474.56850209 686.91401708 475.7514451 686.91424522 476.97023487 C686.91818674 496.10516431 686.93562196 515.24005551 686.95893374 534.3749702 C686.98272195 554.06139636 686.99511305 573.7478034 686.99627566 593.43424416 C686.99718847 604.47071033 687.00284021 615.50712674 687.02109528 626.5435791 C687.03659772 635.94855978 687.04155771 645.35347532 687.03335717 654.75846636 C687.02948564 659.54561671 687.0302059 664.33263631 687.04441452 669.11977005 C687.28402065 754.92937904 661.1008901 839.79093275 600.29833984 902.59356689 C598.96264539 903.91944006 597.61987472 905.23826062 596.26708984 906.54669189 C594.52137964 908.22739768 594.52137964 908.22739768 592.67333984 910.70294189 C590.38050731 913.49733155 587.84825053 915.68233684 585.09912109 918.01934814 C582.83064411 920.00289565 580.65862786 922.06514302 578.48608398 924.15240479 C529.30774547 970.97977133 461.36388789 997.57979647 394.67333984 1005.14044189 C393.52259192 1005.2742256 393.52259192 1005.2742256 392.34859657 1005.410712 C384.01923145 1006.27764844 375.71014791 1006.28620061 367.34667969 1006.28088379 C365.70650793 1006.28347194 364.06633681 1006.28648634 362.42616653 1006.28988719 C357.94251324 1006.29790825 353.458876 1006.29974402 348.97521639 1006.30048466 C344.12958128 1006.3023439 339.28395432 1006.30989576 334.43832397 1006.31661987 C323.85072441 1006.33017093 313.26312864 1006.33622345 302.67552185 1006.34063053 C296.05308961 1006.34339956 289.43065881 1006.34763821 282.80822754 1006.3521347 C264.44156995 1006.36432531 246.0749135 1006.37462364 227.70825195 1006.3780098 C226.53388596 1006.37822936 225.35951997 1006.37844893 224.14956713 1006.37867515 C222.97251443 1006.37889343 221.79546174 1006.3791117 220.58274078 1006.3793366 C218.19790141 1006.37978005 215.81306203 1006.38022661 213.42822266 1006.38067627 C212.24527965 1006.3808977 211.06233664 1006.38111913 209.84354687 1006.38134727 C190.70861743 1006.38528879 171.57372623 1006.40272401 152.43881154 1006.42603579 C132.75238538 1006.449824 113.06597833 1006.46221511 93.37953758 1006.46337771 C82.34307141 1006.46429052 71.306655 1006.46994227 60.27020264 1006.48819733 C50.86522196 1006.50369977 41.46030642 1006.50865976 32.05531538 1006.50045922 C27.26816502 1006.49658769 22.48114543 1006.49730795 17.69401169 1006.51151657 C-68.11559731 1006.75112271 -152.97715101 980.56799215 -215.77978516 919.76544189 C-217.10565832 918.42974745 -218.42447888 917.08697677 -219.73291016 915.73419189 C-221.41361595 913.98848169 -221.41361595 913.98848169 -223.88916016 912.14044189 C-226.68354981 909.84760936 -228.8685551 907.31535258 -231.20556641 904.56622314 C-233.18911391 902.29774616 -235.25136128 900.12572991 -237.33862305 897.95318604 C-284.16598959 848.77484752 -310.76601473 780.83098994 -318.32666016 714.14044189 C-318.46044386 712.98969398 -318.46044386 712.98969398 -318.59693027 711.81569862 C-319.4638667 703.4863335 -319.47241887 695.17724996 -319.46710205 686.81378174 C-319.4696902 685.17360998 -319.4727046 683.53343886 -319.47610545 681.89326859 C-319.48412651 677.40961529 -319.48596228 672.92597805 -319.48670292 668.44231844 C-319.48856216 663.59668333 -319.49611402 658.75105637 -319.50283813 653.90542603 C-319.51638919 643.31782646 -319.52244171 632.7302307 -319.52684879 622.1426239 C-319.52961782 615.52019166 -319.53385647 608.89776086 -319.53835297 602.27532959 C-319.55054357 583.908672 -319.5608419 565.54201555 -319.56422806 547.175354 C-319.56444762 546.00098801 -319.56466719 544.82662202 -319.56489341 543.61666918 C-319.56511169 542.43961648 -319.56532997 541.26256379 -319.56555486 540.04984283 C-319.56599831 537.66500346 -319.56644487 535.28016408 -319.56689453 532.89532471 C-319.56711596 531.7123817 -319.56733739 530.52943869 -319.56756553 529.31064892 C-319.57150705 510.17571948 -319.58894227 491.04082828 -319.61225405 471.90591359 C-319.63604226 452.21948743 -319.64843337 432.53308038 -319.64959598 412.84663963 C-319.65050878 401.81017346 -319.65616053 390.77375705 -319.67441559 379.73730469 C-319.68991803 370.33232401 -319.69487802 360.92740847 -319.68667749 351.52241743 C-319.68280595 346.73526707 -319.68352621 341.94824748 -319.69773483 337.16111374 C-319.93734097 251.35150475 -293.75421041 166.48995104 -232.95166016 103.68731689 C-231.61596571 102.36144373 -230.27319503 101.04262317 -228.92041016 99.73419189 C-227.17469996 98.0534861 -227.17469996 98.0534861 -225.32666016 95.57794189 C-223.03382762 92.78355224 -220.50157084 90.59854695 -217.75244141 88.26153564 C-215.48396443 86.27798814 -213.31194817 84.21574077 -211.1394043 82.128479 C-161.96106578 35.30111246 -94.0172082 8.70108732 -27.32666016 1.14044189 C-26.55949488 1.05125276 -25.7923296 0.96206362 -25.00191689 0.87017179 C-16.67255176 0.00323535 -8.36346822 -0.00531682 0 0 Z " fill="#F1EBCD" transform="translate(356.32666015625,36.85955810546875)"/>
<path d="M0 0 C1.64017175 -0.00258815 3.28034288 -0.00560255 4.92051315 -0.0090034 C9.40416644 -0.01702446 13.88780368 -0.01886023 18.3714633 -0.01960087 C23.21709841 -0.02146011 28.06272536 -0.02901197 32.90835571 -0.03573608 C43.49595528 -0.04928714 54.08355104 -0.05533966 64.67115784 -0.05974674 C71.29359008 -0.06251577 77.91602088 -0.06675442 84.53845215 -0.07125092 C102.90510974 -0.08344152 121.27176618 -0.09373985 139.63842773 -0.09712601 C140.81279373 -0.09734557 141.98715972 -0.09756514 143.19711256 -0.09779136 C144.37416525 -0.09800964 145.55121795 -0.09822791 146.7639389 -0.09845281 C149.14877828 -0.09889626 151.53361766 -0.09934282 153.91845703 -0.09979248 C155.10140004 -0.10001391 156.28434305 -0.10023534 157.50313282 -0.10046348 C176.63806225 -0.104405 195.77295346 -0.12184022 214.90786815 -0.145152 C234.59429431 -0.16894021 254.28070135 -0.18133132 273.96714211 -0.18249393 C285.00360828 -0.18340673 296.04002469 -0.18905848 307.07647705 -0.20731354 C316.48145773 -0.22281598 325.88637327 -0.22777597 335.29136431 -0.21957543 C340.07851466 -0.2157039 344.86553426 -0.21642416 349.652668 -0.23063278 C435.46227699 -0.47023892 520.3238307 25.71289164 583.12646484 86.51544189 C584.45233801 87.85113634 585.77115857 89.19390702 587.07958984 90.54669189 C588.76029563 92.29240209 588.76029563 92.29240209 591.23583984 94.14044189 C594.0302295 96.43327443 596.21523479 98.96553121 598.55224609 101.71466064 C600.5357936 103.98313762 602.59804097 106.15515388 604.68530273 108.32769775 C651.51266928 157.50603627 678.11269442 225.44989385 685.67333984 292.14044189 C685.76252898 292.90760717 685.85171812 293.67477245 685.94360995 294.46518517 C686.81054638 302.79455029 686.81909856 311.10363383 686.81378174 319.46710205 C686.81636989 321.10727381 686.81938429 322.74744493 686.82278514 324.3876152 C686.8308062 328.87126849 686.83264197 333.35490573 686.83338261 337.83856535 C686.83524185 342.68420046 686.84279371 347.52982741 686.84951782 352.37545776 C686.86306888 362.96305733 686.86912139 373.55065309 686.87352848 384.13825989 C686.87629751 390.76069213 686.88053616 397.38312293 686.88503265 404.0055542 C686.89722326 422.37221179 686.90752158 440.73886823 686.91090775 459.10552979 C686.91112731 460.27989578 686.91134688 461.45426177 686.9115731 462.66421461 C686.91179137 463.8412673 686.91200965 465.01832 686.91223454 466.23104095 C686.912678 468.61588033 686.91312456 471.00071971 686.91357422 473.38555908 C686.91379565 474.56850209 686.91401708 475.7514451 686.91424522 476.97023487 C686.91818674 496.10516431 686.93562196 515.24005551 686.95893374 534.3749702 C686.98272195 554.06139636 686.99511305 573.7478034 686.99627566 593.43424416 C686.99718847 604.47071033 687.00284021 615.50712674 687.02109528 626.5435791 C687.03659772 635.94855978 687.04155771 645.35347532 687.03335717 654.75846636 C687.02948564 659.54561671 687.0302059 664.33263631 687.04441452 669.11977005 C687.28402065 754.92937904 661.1008901 839.79093275 600.29833984 902.59356689 C598.96264539 903.91944006 597.61987472 905.23826062 596.26708984 906.54669189 C594.52137964 908.22739768 594.52137964 908.22739768 592.67333984 910.70294189 C590.38050731 913.49733155 587.84825053 915.68233684 585.09912109 918.01934814 C582.83064411 920.00289565 580.65862786 922.06514302 578.48608398 924.15240479 C529.30774547 970.97977133 461.36388789 997.57979647 394.67333984 1005.14044189 C393.52259192 1005.2742256 393.52259192 1005.2742256 392.34859657 1005.410712 C384.01923145 1006.27764844 375.71014791 1006.28620061 367.34667969 1006.28088379 C365.70650793 1006.28347194 364.06633681 1006.28648634 362.42616653 1006.28988719 C357.94251324 1006.29790825 353.458876 1006.29974402 348.97521639 1006.30048466 C344.12958128 1006.3023439 339.28395432 1006.30989576 334.43832397 1006.31661987 C323.85072441 1006.33017093 313.26312864 1006.33622345 302.67552185 1006.34063053 C296.05308961 1006.34339956 289.43065881 1006.34763821 282.80822754 1006.3521347 C264.44156995 1006.36432531 246.0749135 1006.37462364 227.70825195 1006.3780098 C226.53388596 1006.37822936 225.35951997 1006.37844893 224.14956713 1006.37867515 C222.97251443 1006.37889343 221.79546174 1006.3791117 220.58274078 1006.3793366 C218.19790141 1006.37978005 215.81306203 1006.38022661 213.42822266 1006.38067627 C212.24527965 1006.3808977 211.06233664 1006.38111913 209.84354687 1006.38134727 C190.70861743 1006.38528879 171.57372623 1006.40272401 152.43881154 1006.42603579 C132.75238538 1006.449824 113.06597833 1006.46221511 93.37953758 1006.46337771 C82.34307141 1006.46429052 71.306655 1006.46994227 60.27020264 1006.48819733 C50.86522196 1006.50369977 41.46030642 1006.50865976 32.05531538 1006.50045922 C27.26816502 1006.49658769 22.48114543 1006.49730795 17.69401169 1006.51151657 C-68.11559731 1006.75112271 -152.97715101 980.56799215 -215.77978516 919.76544189 C-217.10565832 918.42974745 -218.42447888 917.08697677 -219.73291016 915.73419189 C-221.41361595 913.98848169 -221.41361595 913.98848169 -223.88916016 912.14044189 C-226.68354981 909.84760936 -228.8685551 907.31535258 -231.20556641 904.56622314 C-233.18911391 902.29774616 -235.25136128 900.12572991 -237.33862305 897.95318604 C-284.16598959 848.77484752 -310.76601473 780.83098994 -318.32666016 714.14044189 C-318.46044386 712.98969398 -318.46044386 712.98969398 -318.59693027 711.81569862 C-319.4638667 703.4863335 -319.47241887 695.17724996 -319.46710205 686.81378174 C-319.4696902 685.17360998 -319.4727046 683.53343886 -319.47610545 681.89326859 C-319.48412651 677.40961529 -319.48596228 672.92597805 -319.48670292 668.44231844 C-319.48856216 663.59668333 -319.49611402 658.75105637 -319.50283813 653.90542603 C-319.51638919 643.31782646 -319.52244171 632.7302307 -319.52684879 622.1426239 C-319.52961782 615.52019166 -319.53385647 608.89776086 -319.53835297 602.27532959 C-319.55054357 583.908672 -319.5608419 565.54201555 -319.56422806 547.175354 C-319.56444762 546.00098801 -319.56466719 544.82662202 -319.56489341 543.61666918 C-319.56511169 542.43961648 -319.56532997 541.26256379 -319.56555486 540.04984283 C-319.56599831 537.66500346 -319.56644487 535.28016408 -319.56689453 532.89532471 C-319.56711596 531.7123817 -319.56733739 530.52943869 -319.56756553 529.31064892 C-319.57150705 510.17571948 -319.58894227 491.04082828 -319.61225405 471.90591359 C-319.63604226 452.21948743 -319.64843337 432.53308038 -319.64959598 412.84663963 C-319.65050878 401.81017346 -319.65616053 390.77375705 -319.67441559 379.73730469 C-319.68991803 370.33232401 -319.69487802 360.92740847 -319.68667749 351.52241743 C-319.68280595 346.73526707 -319.68352621 341.94824748 -319.69773483 337.16111374 C-319.93734097 251.35150475 -293.75421041 166.48995104 -232.95166016 103.68731689 C-231.61596571 102.36144373 -230.27319503 101.04262317 -228.92041016 99.73419189 C-227.17469996 98.0534861 -227.17469996 98.0534861 -225.32666016 95.57794189 C-223.03382762 92.78355224 -220.50157084 90.59854695 -217.75244141 88.26153564 C-215.48396443 86.27798814 -213.31194817 84.21574077 -211.1394043 82.128479 C-161.96106578 35.30111246 -94.0172082 8.70108732 -27.32666016 1.14044189 C-26.55949488 1.05125276 -25.7923296 0.96206362 -25.00191689 0.87017179 C-16.67255176 0.00323535 -8.36346822 -0.00531682 0 0 Z M-49.32666016 34.14044189 C-50.18984863 34.2931958 -51.05303711 34.44594971 -51.94238281 34.60333252 C-75.54276481 38.91225842 -98.76114042 46.64460104 -120.32666016 57.14044189 C-121.94769938 57.90618234 -123.56879551 58.67180231 -125.18994141 59.43731689 C-146.55703031 69.67898301 -166.24508849 82.8521613 -184.32666016 98.14044189 C-185.42672783 99.05343459 -186.52699791 99.96618347 -187.62744141 100.87872314 C-199.10112487 110.46830701 -209.91514651 120.68802515 -219.19384766 132.44903564 C-221.45908305 135.30754697 -223.82572802 138.06098645 -226.20166016 140.82794189 C-270.13646261 193.64462571 -290.51346158 262.28727141 -290.46710205 330.20625305 C-290.46969423 331.75714374 -290.47270972 333.30803376 -290.47610545 334.8589229 C-290.48407895 339.07272259 -290.48595955 343.28650516 -290.48670292 347.50031149 C-290.48857058 352.06440591 -290.49612634 356.62849179 -290.50283813 361.19258118 C-290.51635401 371.15207402 -290.52243584 381.1115628 -290.52684879 391.07106328 C-290.52962318 397.30610376 -290.53386268 403.54114272 -290.53835297 409.77618217 C-290.55053775 427.08532266 -290.56083801 444.39446193 -290.56422806 461.70360661 C-290.56444762 462.8090033 -290.56466719 463.91439999 -290.56489341 465.05329355 C-290.56511169 466.16113505 -290.56532997 467.26897655 -290.56555486 468.41038901 C-290.5659983 470.65479791 -290.56644487 472.89920682 -290.56689453 475.14361572 C-290.56711596 476.25688846 -290.56733739 477.37016119 -290.56756553 478.51716947 C-290.57150685 496.52390427 -290.58894407 514.53059845 -290.61225405 532.53731758 C-290.63606758 551.08486894 -290.64843446 569.6324 -290.64959598 588.17996687 C-290.65050724 598.56926563 -290.65611956 608.95851146 -290.67441559 619.34779549 C-290.68995243 628.20064688 -290.69485823 637.05342897 -290.68667749 645.90629143 C-290.68281812 650.40841271 -290.68346386 654.91039505 -290.69773483 659.41249847 C-290.80750462 696.2008871 -288.7078758 732.88376483 -277.32666016 768.14044189 C-277.02743652 769.07243408 -276.72821289 770.00442627 -276.41992188 770.96466064 C-267.81736795 797.4285629 -256.13107487 823.1621972 -240.32666016 846.14044189 C-239.92592285 846.72374268 -239.52518555 847.30704346 -239.11230469 847.90802002 C-233.54710397 855.96571789 -227.65213467 863.65925263 -221.32666016 871.14044189 C-220.41366746 872.24050957 -219.50091858 873.34077964 -218.58837891 874.44122314 C-208.99879504 885.91490661 -198.7790769 896.72892824 -187.01806641 906.00762939 C-184.15955508 908.27286478 -181.4061156 910.63950976 -178.63916016 913.01544189 C-125.82247634 956.95024435 -57.17983064 977.32724332 10.739151 977.28088379 C12.29004169 977.28347597 13.84093171 977.28649145 15.39182085 977.28988719 C19.60562054 977.29786069 23.81940311 977.29974129 28.03320944 977.30048466 C32.59730386 977.30235232 37.16138974 977.30990807 41.72547913 977.31661987 C51.68497197 977.33013575 61.64446075 977.33621758 71.60396123 977.34063053 C77.83900171 977.34340492 84.07404067 977.34764442 90.30908012 977.3521347 C107.61822061 977.36431949 124.92735988 977.37461975 142.23650455 977.3780098 C143.89459959 977.37833915 143.89459959 977.37833915 145.5861915 977.37867515 C147.24795375 977.37900256 147.24795375 977.37900256 148.94328696 977.3793366 C151.18769586 977.37978004 153.43210477 977.3802266 155.67651367 977.38067627 C156.78978641 977.3808977 157.90305914 977.38111913 159.05006742 977.38134727 C177.05680222 977.38528859 195.06349639 977.40272581 213.07021553 977.42603579 C231.61776689 977.44984932 250.16529795 977.4622162 268.71286482 977.46337771 C279.10216358 977.46428898 289.49140941 977.4699013 299.88069344 977.48819733 C308.73354483 977.50373417 317.58632692 977.50863997 326.43918938 977.50045922 C330.94131066 977.49659986 335.443293 977.4972456 339.94539642 977.51151657 C376.73378505 977.62128636 413.41666278 975.52165754 448.67333984 964.14044189 C449.60533203 963.84121826 450.53732422 963.54199463 451.49755859 963.23370361 C477.96146085 954.63114969 503.69509515 942.9448566 526.67333984 927.14044189 C527.25664063 926.73970459 527.83994141 926.33896729 528.44091797 925.92608643 C536.49861584 920.36088571 544.19215058 914.46591641 551.67333984 908.14044189 C552.77340752 907.22744919 553.87367759 906.31470032 554.97412109 905.40216064 C566.44780456 895.81257678 577.26182619 885.59285864 586.54052734 873.83184814 C588.80576273 870.97333682 591.17240771 868.21989734 593.54833984 865.45294189 C616.44943162 837.92215409 632.57666795 804.99508573 643.67333984 771.14044189 C643.96821289 770.25807861 644.26308594 769.37571533 644.56689453 768.46661377 C654.30995837 739.06924509 657.84278065 707.26747259 657.80705261 676.40174866 C657.80892496 674.84988385 657.81122734 673.29801952 657.81391793 671.74615592 C657.8199905 667.51592307 657.81990773 663.28571012 657.81872356 659.05547392 C657.81851838 654.47915385 657.82404958 649.90283997 657.82878113 645.32652283 C657.83706442 636.37131093 657.83983496 627.41610562 657.84039351 618.46089021 C657.84086999 611.17213944 657.84293132 603.88339082 657.84609413 596.59464073 C657.85489615 575.88556706 657.85951448 555.17649856 657.85876366 534.467423 C657.8587237 533.35251972 657.85868375 532.23761645 657.85864258 531.08892822 C657.8586017 529.97264743 657.85856082 528.85636664 657.8585187 527.70625915 C657.85811287 509.64423337 657.86766774 491.5822285 657.88178094 473.52020875 C657.89619025 454.93096617 657.90304856 436.34173375 657.90218717 417.75248545 C657.90185666 407.33369258 657.90453904 396.91492161 657.91536522 386.4961338 C657.92453061 377.61928786 657.92659661 368.74247372 657.9198558 359.86562506 C657.9166201 355.347972 657.91642502 350.83037974 657.92520905 346.3127327 C657.96955197 321.97872947 657.86963659 297.60274285 653.48583984 273.57794189 C653.16546753 271.78344604 653.16546753 271.78344604 652.83862305 269.95269775 C643.11821167 217.80153641 618.70002286 167.46625472 582.71240234 128.36309814 C580.86083689 126.34482086 579.07500984 124.28695054 577.29833984 122.20294189 C570.30920441 114.21535855 562.77546835 106.98304197 554.47021484 100.37872314 C551.58475663 98.06955058 548.79034272 95.67200855 545.98583984 93.26544189 C518.45505204 70.36435011 485.52798368 54.23711379 451.67333984 43.14044189 C450.79097656 42.84556885 449.90861328 42.5506958 448.99951172 42.24688721 C419.59740702 32.50225373 387.79171313 28.97102987 356.92118835 29.00672913 C355.36789817 29.00485679 353.81460845 29.00255442 352.26131946 28.9998638 C348.02722539 28.99379123 343.7931512 28.993874 339.55905378 28.99505818 C334.97868194 28.99526335 330.39831629 28.98973224 325.81794739 28.98500061 C316.85538548 28.97671763 307.89283015 28.9739468 298.93026473 28.97338823 C291.63672942 28.9729118 284.34319627 28.97085069 277.04966164 28.96768761 C256.33045664 28.95888617 235.61125681 28.95426724 214.89204993 28.95501808 C213.77662121 28.95505804 212.66119248 28.95509799 211.51196289 28.95513916 C210.39515748 28.95518004 209.27835206 28.95522092 208.12770406 28.95526304 C190.05139411 28.955669 171.97510503 28.9461108 153.89880111 28.93200079 C135.29826806 28.91759727 116.69774517 28.91073284 98.09720641 28.91159457 C87.67065251 28.91192525 77.24412049 28.90923532 66.81757164 28.89841652 C57.93554482 28.88925886 49.05354978 28.88717897 40.17152026 28.89392594 C35.65006448 28.89716527 31.12866948 28.89734303 26.6072197 28.88857269 C1.06180171 28.84216999 -24.11576255 29.61229455 -49.32666016 34.14044189 Z " fill="#D6CD9F" transform="translate(356.32666015625,36.85955810546875)"/>
<path d="M0 0 C13.66754036 9.68403613 18.23224652 25.18417751 20.96240234 40.98291016 C22.05886566 48.2322887 22.06503257 55.51808294 22.02807617 62.83544922 C22.01955995 65.39372288 22.04847602 67.94975673 22.08007812 70.5078125 C22.16419101 90.28644112 18.47138739 110.84406328 5.078125 126.1796875 C-3.75906614 134.49134928 -14.08670768 136.98650046 -25.91796875 136.7734375 C-36.51104918 136.02861153 -44.9428546 131.50181784 -52.16796875 123.77734375 C-68.86741316 103.41404895 -68.89585093 72.85640207 -67.13671875 47.98046875 C-65.74211735 34.40992437 -62.51809802 20.70595881 -54.41796875 9.52734375 C-53.69609375 8.47546875 -52.97421875 7.42359375 -52.23046875 6.33984375 C-38.42955311 -7.46107189 -16.7151566 -10.18031347 0 0 Z " fill="#2F2F35" transform="translate(419.41796875,549.47265625)"/>
<path d="M0 0 C12.16166281 9.65026781 17.12514917 25.73276591 19.66796875 40.49609375 C19.93942535 43.82470867 19.97225174 47.13408676 19.96875 50.47265625 C19.97303513 51.4009726 19.97732025 52.32928894 19.98173523 53.28573608 C19.98744513 55.24044993 19.98800362 57.19518502 19.98364258 59.14990234 C19.98049929 62.09250535 20.00392644 65.03408454 20.02929688 67.9765625 C20.09992779 88.58816515 17.25283234 109.67795125 2.66796875 125.49609375 C-6.10979216 133.20890572 -16.43584435 136.20293796 -27.97265625 135.8125 C-38.44633311 134.82602578 -46.73166136 130.50914272 -54.01953125 122.93359375 C-64.58509463 109.97121275 -68.4002204 90.62367629 -68.5 74.2265625 C-68.50432541 73.55244324 -68.50865082 72.87832397 -68.5131073 72.18377686 C-68.52315003 70.01697623 -68.52330312 67.8504128 -68.51953125 65.68359375 C-68.51826233 64.94344025 -68.51699341 64.20328674 -68.51568604 63.44070435 C-68.44531391 41.97284421 -67.91415839 20.10409047 -52.33203125 3.49609375 C-37.75490414 -9.47993907 -16.3178192 -10.52321674 0 0 Z " fill="#2F2E35" transform="translate(530.33203125,550.50390625)"/>
<path d="M0 0 C7.36212151 4.57343912 10.7901042 10.43482516 13.1328125 18.62890625 C14.59876568 25.0774531 14.60687837 31.36100468 14.3203125 37.94140625 C15.6403125 37.94140625 16.9603125 37.94140625 18.3203125 37.94140625 C18.4028125 36.70390625 18.4853125 35.46640625 18.5703125 34.19140625 C19.96390086 22.03091608 24.94266864 9.99154891 34.51171875 2.09765625 C40.9669112 -2.02920544 47.89188501 -1.86621441 55.3203125 -1.05859375 C62.70406069 1.54606703 68.06010057 8.04853356 71.5078125 14.87890625 C77.12192559 29.25836159 76.73992536 44.39164964 76.6484375 59.5625 C76.64537328 61.80168022 76.64350221 64.04086236 76.64276123 66.28004456 C76.63819284 70.9352262 76.62388941 75.5902315 76.6015625 80.24536133 C76.57303488 86.2242577 76.56232256 92.20301736 76.5578804 98.18197536 C76.55373848 102.78771842 76.54393535 107.39343372 76.53200531 111.99916267 C76.52629853 114.20608359 76.52154118 116.41300716 76.51773834 118.61993217 C76.510907 121.68343775 76.49729623 124.74683226 76.48144531 127.81030273 C76.48032745 128.72599533 76.47920959 129.64168793 76.47805786 130.58512878 C76.4350183 136.82670045 76.4350183 136.82670045 75.3203125 137.94140625 C73.69773706 138.04057195 72.07091419 138.07220402 70.4453125 138.07421875 C69.46046875 138.07550781 68.475625 138.07679688 67.4609375 138.078125 C66.42453125 138.07425781 65.388125 138.07039062 64.3203125 138.06640625 C63.28390625 138.07027344 62.2475 138.07414063 61.1796875 138.078125 C60.19484375 138.07683594 59.21 138.07554687 58.1953125 138.07421875 C57.28523437 138.07309082 56.37515625 138.07196289 55.4375 138.07080078 C53.3203125 137.94140625 53.3203125 137.94140625 52.3203125 136.94140625 C52.22163042 135.61060692 52.19123868 134.27465203 52.18901062 132.94020081 C52.18500244 132.07820572 52.18099426 131.21621063 52.17686462 130.32809448 C52.17739334 129.3749234 52.17792206 128.42175232 52.1784668 127.43969727 C52.17499237 126.44124283 52.17151794 125.44278839 52.16793823 124.41407776 C52.16056422 122.23637517 52.15522765 120.05866497 52.15164757 117.88095284 C52.1444982 114.42935689 52.12884044 110.97790445 52.11030579 107.52635193 C52.05778327 97.70907636 52.00990765 87.89187574 51.99438477 78.07446289 C51.98427616 72.07553286 51.95487031 66.07695822 51.91306496 60.07816887 C51.90078293 57.79497917 51.89562856 55.51173917 51.89786339 53.22851753 C51.90022877 50.02118507 51.87795229 46.81486164 51.8503418 43.60766602 C51.85694321 42.67271301 51.86354462 41.73776001 51.87034607 40.7744751 C51.77944568 34.30472446 50.56631149 28.61199341 47.3203125 22.94140625 C44.16498493 20.83785454 42.21159114 20.39615041 38.4453125 20.5 C33.19262262 21.59109183 30.10631236 25.84100645 27.1328125 30.00390625 C19.68791651 44.47831777 19.02092788 60.39292264 18.94140625 76.26171875 C18.92520426 78.0148102 18.90802149 79.76789283 18.88990784 81.52096558 C18.84454664 86.10054463 18.80955718 90.68013582 18.77770996 95.25982666 C18.7255001 102.62413938 18.66083114 109.98832426 18.58949471 117.35247421 C18.5666353 119.92345748 18.55039343 122.49442405 18.53477478 125.06546021 C18.52137863 126.62713822 18.50776476 128.18881439 18.49389648 129.75048828 C18.49128311 130.46831985 18.48866974 131.18615143 18.48597717 131.92573547 C18.4339674 136.82775135 18.4339674 136.82775135 17.3203125 137.94140625 C15.75858505 138.02826228 14.19301906 138.04842844 12.62890625 138.0390625 C11.68466797 138.03583984 10.74042969 138.03261719 9.76757812 138.02929688 C8.77435547 138.02091797 7.78113281 138.01253906 6.7578125 138.00390625 C5.76072266 137.99939453 4.76363281 137.99488281 3.73632812 137.99023438 C1.26426401 137.97840632 -1.20768268 137.96192474 -3.6796875 137.94140625 C-3.68999496 136.76313766 -3.70030243 135.58486908 -3.71092224 134.37089539 C-3.80893414 123.23415185 -3.91169274 112.09746073 -4.01902676 100.96080303 C-4.07404954 95.23617553 -4.12743499 89.51154278 -4.17700195 83.78686523 C-4.22495194 78.25604429 -4.27730294 72.72528049 -4.33262825 67.19452858 C-4.3529139 65.09078214 -4.37164841 62.98702011 -4.38876152 60.88324547 C-3.33383262 41.02652973 -3.33383262 41.02652973 -9.6796875 22.94140625 C-12.87186888 20.81328533 -14.78388182 20.64279395 -18.546875 20.48046875 C-22.73306718 21.38517695 -25.14857859 24.21194442 -27.59375 27.5703125 C-31.48015343 34.23398596 -34.13519057 40.38831804 -35.6796875 47.94140625 C-35.8387709 48.54434509 -35.99785431 49.14728394 -36.16175842 49.76849365 C-38.27102281 58.53839796 -38.03383727 67.45646633 -38.09375 76.41796875 C-38.11248876 78.197305 -38.13206413 79.97663262 -38.1524353 81.75595093 C-38.20347666 86.40825276 -38.2432511 91.06058332 -38.28057861 95.7130127 C-38.32079507 100.47280824 -38.37180638 105.2324872 -38.421875 109.9921875 C-38.51830229 119.30851947 -38.60181253 128.62490072 -38.6796875 137.94140625 C-45.9396875 137.94140625 -53.1996875 137.94140625 -60.6796875 137.94140625 C-60.6796875 93.06140625 -60.6796875 48.18140625 -60.6796875 1.94140625 C-54.4096875 1.94140625 -48.1396875 1.94140625 -41.6796875 1.94140625 C-41.57548955 13.99363532 -41.64621879 25.92733244 -42.6796875 37.94140625 C-41.3596875 37.94140625 -40.0396875 37.94140625 -38.6796875 37.94140625 C-38.5971875 36.88953125 -38.5146875 35.83765625 -38.4296875 34.75390625 C-36.83223813 22.53557731 -32.44426516 10.06665845 -22.4296875 2.31640625 C-16.00142275 -2.13195296 -7.2876029 -2.87892185 0 0 Z " fill="#302F36" transform="translate(636.6796875,545.05859375)"/>
<path d="M0 0 C1.49273437 -0.04350586 1.49273437 -0.04350586 3.015625 -0.08789062 C11.22788815 -0.15757693 17.62875069 1.70684701 24.625 6 C34.47696607 16.12563179 37.92361583 29.57223982 38.06445312 43.4284668 C38.07689308 44.45666283 38.07689308 44.45666283 38.08958435 45.50563049 C38.10689545 46.98532071 38.12208607 48.46503697 38.13536072 49.94476891 C38.15656344 52.29648435 38.18357492 54.64807196 38.21203613 56.99971008 C38.27150843 61.99975615 38.32369992 66.99986434 38.375 72 C38.4345492 77.78185062 38.49718106 83.56363912 38.56687927 89.34537697 C38.59312455 91.64443026 38.61414059 93.94349103 38.6348877 96.24259949 C38.70997521 103.18731673 38.89633325 110.06827143 39.65660095 116.97952271 C40.04679929 121.14769047 39.98019555 125.31772513 39.9375 129.5 C39.916875 132.408125 39.89625 135.31625 39.875 138.3125 C33.275 138.3125 26.675 138.3125 19.875 138.3125 C18.87038009 134.29402038 18.53476177 130.48570178 18.3125 126.375 C18.2700415 125.62806885 18.22758301 124.8811377 18.18383789 124.11157227 C17.83407113 117.5068217 17.7714775 110.92643751 17.875 104.3125 C16.885 104.3125 15.895 104.3125 14.875 104.3125 C14.78863281 104.89515625 14.70226562 105.4778125 14.61328125 106.078125 C12.59619323 117.84755602 8.17440786 128.33613869 -0.5625 136.625 C-7.6200209 141.27263572 -13.69524405 142.4600622 -22.125 141.3125 C-30.72133698 138.41927301 -36.66348903 133.19450272 -41.125 125.3125 C-45.73467178 115.3642767 -45.91719091 101.72751244 -42.6875 91.3125 C-35.67470343 75.38760778 -18.93653041 67.30201205 -3.99145508 60.38110352 C2.82995448 57.14457926 9.37955966 53.49137232 13.3515625 46.83984375 C14.04745472 43.47982686 14.21543636 40.30716925 14.25 36.875 C14.27835937 35.59753906 14.30671875 34.32007813 14.3359375 33.00390625 C13.67618801 27.72031924 11.68937719 24.73743517 7.52734375 21.46875 C2.19236025 19.14304291 -4.6936133 19.01093953 -10.1640625 21.0859375 C-14.78363722 24.42624538 -16.7644565 29.99854478 -18.125 35.3125 C-18.69398841 39.6444622 -18.98814195 43.94672831 -19.125 48.3125 C-25.81629449 48.44063117 -32.50311792 48.3960807 -39.125 47.3125 C-41.10671394 45.33078606 -40.36465593 41.57693305 -40.375 38.875 C-40.35698096 27.2488564 -37.55452197 18.23541454 -29.49609375 9.55859375 C-20.88738569 1.58904731 -11.27438351 0.10703529 0 0 Z " fill="#7959FE" transform="translate(445.125,402.6875)"/>
<path d="M0 0 C7.26 0 14.52 0 22 0 C22.15362747 26.90187682 21.80190808 53.30438204 18 80 C19.32 80 20.64 80 22 80 C22.17015625 79.10539062 22.3403125 78.21078125 22.515625 77.2890625 C25.23618913 63.715184 28.86529467 52.46007953 39.9375 43.4375 C46.34409397 39.48566627 53.80449741 40.13893569 61 41 C67.26352684 42.61062119 71.57879241 46.61135575 75 52 C80.59480295 62.84864838 82.3202724 73.70073652 82.22705078 85.7956543 C82.22734283 86.81163193 82.22763489 87.82760956 82.22793579 88.87437439 C82.22655626 92.19107987 82.21106057 95.50755312 82.1953125 98.82421875 C82.19157747 101.14020159 82.18873281 103.45618603 82.18673706 105.77217102 C82.17913922 111.83674564 82.15952411 117.90122286 82.1373291 123.96575928 C82.11678738 130.16661258 82.10771761 136.36748178 82.09765625 142.56835938 C82.07627431 154.71228903 82.04112387 166.85612114 82 179 C74.41 179 66.82 179 59 179 C58.98541748 175.96248535 58.97083496 172.9249707 58.95581055 169.79541016 C58.90537675 159.73706407 58.83876609 149.67887136 58.76428509 139.62067604 C58.71963961 133.52496295 58.68037051 127.42931581 58.65356445 121.33349609 C58.62747363 115.44597223 58.58702999 109.55870291 58.53681374 103.67133713 C58.52018414 101.43001863 58.50864562 99.18865615 58.50238609 96.9472847 C58.4927026 93.79743281 58.46459202 90.64822644 58.43237305 87.49853516 C58.43380814 86.58071259 58.43524323 85.66289001 58.4367218 84.71725464 C58.33310892 77.51129075 57.11105228 70.69434149 53.5 64.375 C49.19532948 62.00743121 44.77118224 62.20955041 40 63 C30.31389118 69.45740588 26.24447005 83.75805616 23.97216797 94.57568359 C22.51972041 102.71586663 22.64268212 110.89417999 22.5859375 119.13671875 C22.5671928 120.86978544 22.54761702 122.60284332 22.5272522 124.33589172 C22.4762734 128.86159025 22.43646608 133.38731825 22.39910889 137.91314697 C22.35885253 142.54568569 22.30785971 147.17810542 22.2578125 151.81054688 C22.1614596 160.87362199 22.07792123 169.93674766 22 179 C14.74 179 7.48 179 0 179 C0 119.93 0 60.86 0 0 Z " fill="#7859FE" transform="translate(297,362)"/>
<path d="M0 0 C7.0024615 5.08318218 12.89973788 12.03405515 15.3515625 20.45703125 C15.71141353 23.76155916 15.68278185 27.01219043 15.6015625 30.33203125 C15.59640625 31.19828125 15.59125 32.06453125 15.5859375 32.95703125 C15.50637401 39.30221974 15.50637401 39.30221974 14.3515625 40.45703125 C11.19982687 40.83554033 8.02130008 40.92651743 4.8515625 41.08203125 C3.95824219 41.13359375 3.06492187 41.18515625 2.14453125 41.23828125 C1.29503906 41.28210938 0.44554687 41.3259375 -0.4296875 41.37109375 C-1.21408203 41.41186035 -1.99847656 41.45262695 -2.80664062 41.49462891 C-4.6484375 41.45703125 -4.6484375 41.45703125 -5.6484375 40.45703125 C-5.7815541 38.25025379 -5.87954261 36.04132111 -5.9609375 33.83203125 C-6.4559041 26.33899848 -7.53592315 22.33610702 -13.1484375 17.14453125 C-18.46667245 13.55472266 -22.28196494 12.78797666 -28.6484375 13.45703125 C-33.04643625 14.44638773 -35.91568305 15.70548822 -39.0859375 18.95703125 C-42.35350561 24.18514023 -42.22052478 29.4669409 -41.6484375 35.45703125 C-38.9386039 44.97806824 -27.8200324 50.17600105 -19.8828125 54.71875 C-16.53879052 56.51595988 -13.14053277 58.14237883 -9.7109375 59.76953125 C0.84275477 64.99378423 10.94684306 71.62750048 16.3515625 82.45703125 C16.72023438 83.17246094 17.08890625 83.88789062 17.46875 84.625 C20.73621096 95.10689908 19.26298641 108.0439122 14.76953125 117.88671875 C9.5192395 127.40377652 1.48494495 132.13354247 -8.6484375 135.45703125 C-21.2811243 138.71155395 -36.93756226 137.04296403 -48.5234375 131.26953125 C-56.70392479 126.24115833 -61.5442338 118.71172361 -64.18774414 109.59765625 C-64.66706893 107.37045976 -64.76234788 105.40448415 -64.74609375 103.12890625 C-64.74125977 101.93007813 -64.74125977 101.93007813 -64.73632812 100.70703125 C-64.72794922 99.88203125 -64.71957031 99.05703125 -64.7109375 98.20703125 C-64.70642578 97.3665625 -64.70191406 96.52609375 -64.69726562 95.66015625 C-64.68551711 93.59241724 -64.66758272 91.52471501 -64.6484375 89.45703125 C-59.64930999 87.82282483 -55.52881656 87.23073832 -50.2109375 87.33203125 C-48.97472656 87.35007812 -47.73851562 87.368125 -46.46484375 87.38671875 C-45.53542969 87.40992188 -44.60601563 87.433125 -43.6484375 87.45703125 C-43.61105469 88.29105469 -43.57367187 89.12507812 -43.53515625 89.984375 C-43.12725896 96.96661689 -42.23482391 102.96295233 -39.6484375 109.45703125 C-39.3184375 110.44703125 -38.9884375 111.43703125 -38.6484375 112.45703125 C-36.81559307 113.5821921 -36.81559307 113.5821921 -34.6484375 114.45703125 C-33.79958984 114.96943359 -33.79958984 114.96943359 -32.93359375 115.4921875 C-27.35129571 117.84915778 -19.87809192 117.28172894 -14.09375 115.8046875 C-10.12943584 114.06188524 -7.21287357 111.71493065 -5.2734375 107.71484375 C-3.55231495 101.49728853 -3.54026085 94.89501989 -6.2109375 89.01953125 C-12.39406042 82.5193251 -18.87447968 78.50940917 -26.8984375 74.51953125 C-42.64093708 66.49243962 -42.64093708 66.49243962 -49.6484375 61.45703125 C-50.30457031 60.99425781 -50.96070313 60.53148437 -51.63671875 60.0546875 C-58.22889606 54.95880739 -62.54729173 47.46230154 -64.6484375 39.45703125 C-65.97847594 28.03602092 -65.8616198 16.91596721 -58.6484375 7.45703125 C-44.85830491 -8.40818796 -17.7901404 -10.36446233 0 0 Z " fill="#2F2F35" transform="translate(800.6484375,549.54296875)"/>
<path d="M0 0 C1.51968384 0.00930542 1.51968384 0.00930542 3.07006836 0.01879883 C11.28154998 0.25296029 16.94708189 1.73466168 23.6875 6.625 C24.780625 7.32625 25.87375 8.0275 27 8.75 C36.45781907 18.86766691 40.10022886 30.69974568 39.890625 44.2890625 C39.6875 46.625 39.6875 46.625 38.6875 47.625 C36.10257439 48.02926348 33.53403604 48.37893278 30.9375 48.6875 C30.22078125 48.77837891 29.5040625 48.86925781 28.765625 48.96289062 C25.05298356 49.41673374 21.42819516 49.7354536 17.6875 49.625 C16.61371724 46.40365172 16.51391273 43.82300179 16.375 40.4375 C15.81586658 32.82142505 14.02503189 28.43003827 9.1875 22.625 C5.40312055 19.76977765 1.15821532 20.06447325 -3.41015625 20.05859375 C-7.07124781 20.77307326 -8.6726925 22.01181241 -11.3125 24.625 C-13.07720561 27.13680882 -13.07720561 27.13680882 -14.4375 30 C-14.91445312 30.91523438 -15.39140625 31.83046875 -15.8828125 32.7734375 C-20.51478198 44.08027639 -20.81837774 55.87359582 -20.75854492 67.89208984 C-20.75003255 70.49006504 -20.77891472 73.08583374 -20.81054688 75.68359375 C-20.86948385 89.77563325 -19.41829209 104.58838705 -11.3125 116.625 C-6.56112163 121.15538403 -3.32603123 122.00682767 3.0859375 121.88671875 C7.10482109 121.48241665 9.80376682 120.49402026 12.6875 117.625 C17.45867253 110.44286262 19.42683469 102.84025015 20.234375 94.375 C20.32041992 93.48296875 20.40646484 92.5909375 20.49511719 91.671875 C20.55860352 90.99640625 20.62208984 90.3209375 20.6875 89.625 C24.16664941 89.59612186 27.64576831 89.57824313 31.125 89.5625 C32.61483398 89.54993164 32.61483398 89.54993164 34.13476562 89.53710938 C35.07900391 89.53388672 36.02324219 89.53066406 36.99609375 89.52734375 C37.87064209 89.52210693 38.74519043 89.51687012 39.64624023 89.51147461 C41.6875 89.625 41.6875 89.625 42.6875 90.625 C43.82391796 104.72095359 40.68590566 118.75745494 31.80078125 130.015625 C25.00674678 137.22344153 16.81166516 141.2004911 6.85546875 141.890625 C-6.54512423 141.83802208 -17.22956928 141.02845493 -27.54296875 131.58203125 C-43.98842975 114.1492255 -44.96994197 87.84893455 -44.41015625 65.11230469 C-43.57973487 43.96147204 -40.6965895 23.04323461 -24.5 7.875 C-17.3745008 1.39441353 -9.35119298 -0.10289639 0 0 Z " fill="#7859FE" transform="translate(234.3125,402.375)"/>
<path d="M0 0 C3.58072917 0.06510417 7.16145833 0.13020833 10.7421875 0.1953125 C10.7421875 9.1053125 10.7421875 18.0153125 10.7421875 27.1953125 C16.95011664 27.15573223 16.95011664 27.15573223 23.15795898 27.10522461 C23.92696533 27.10272705 24.69597168 27.10022949 25.48828125 27.09765625 C26.27904053 27.09241943 27.0697998 27.08718262 27.88452148 27.08178711 C29.7421875 27.1953125 29.7421875 27.1953125 30.7421875 28.1953125 C30.82870361 29.61101373 30.84923654 31.0309075 30.83984375 32.44921875 C30.83734619 33.2182251 30.83484863 33.98723145 30.83227539 34.77954102 C30.82317139 35.76237061 30.81406738 36.7452002 30.8046875 37.7578125 C30.7840625 40.8721875 30.7634375 43.9865625 30.7421875 47.1953125 C24.1421875 47.1953125 17.5421875 47.1953125 10.7421875 47.1953125 C10.78252395 58.6960703 10.83960853 70.19641137 10.92609024 81.69691658 C10.9655806 87.03721461 10.99776153 92.37734736 11.01318359 97.71777344 C11.02833976 102.87268465 11.06276719 108.02714151 11.11049652 113.18185043 C11.12532098 115.14735843 11.13322912 117.1129313 11.13407135 119.07849503 C11.13643953 121.83423414 11.16350709 124.58871614 11.19628906 127.34423828 C11.1912587 128.15488235 11.18622833 128.96552643 11.18104553 129.80073547 C11.27640584 134.99005487 12.16091546 138.16921388 15.7421875 142.1953125 C18.8459874 142.66275224 20.94590214 142.77860026 23.9921875 142.5703125 C26.5496875 142.4465625 29.1071875 142.3228125 31.7421875 142.1953125 C31.7421875 149.1253125 31.7421875 156.0553125 31.7421875 163.1953125 C26.17242144 165.05190119 22.53963254 165.56084264 16.8671875 165.5703125 C16.10277344 165.59480469 15.33835937 165.61929688 14.55078125 165.64453125 C7.75000419 165.67917018 2.66772811 163.75321881 -2.46484375 159.265625 C-9.57868796 150.64593056 -11.41660872 143.86613693 -11.37133789 132.90698242 C-11.37155693 131.51600342 -11.37155693 131.51600342 -11.3717804 130.09692383 C-11.37108519 127.03985229 -11.36331114 123.98284211 -11.35546875 120.92578125 C-11.35360318 118.80300429 -11.35217993 116.68022689 -11.35118103 114.55744934 C-11.34736683 108.97615363 -11.33754589 103.39488404 -11.32647705 97.81359863 C-11.31623936 92.11597039 -11.31167836 86.41833792 -11.30664062 80.72070312 C-11.29592265 69.54556146 -11.27885937 58.37043915 -11.2578125 47.1953125 C-15.8778125 47.1953125 -20.4978125 47.1953125 -25.2578125 47.1953125 C-25.2578125 40.9253125 -25.2578125 34.6553125 -25.2578125 28.1953125 C-23.1953125 27.9271875 -21.1328125 27.6590625 -19.0078125 27.3828125 C-12.99704899 26.64849307 -12.99704899 26.64849307 -8.2578125 23.1953125 C-5.68368159 17.48602214 -5.84325145 11.62400575 -5.6015625 5.4609375 C-5.13371569 1.01639284 -4.4794682 0.26855325 0 0 Z " fill="#7859FE" transform="translate(527.2578125,377.8046875)"/>
<path d="M0 0 C0.02716089 3.02089478 0.04691657 6.04154129 0.0625 9.0625 C0.07087891 9.91005859 0.07925781 10.75761719 0.08789062 11.63085938 C0.10683006 16.5361722 -0.16673655 21.16444755 -1 26 C-2.299375 26.04125 -3.59875 26.0825 -4.9375 26.125 C-11.7299617 26.92474039 -16.49307856 30.12056413 -20.9453125 35.234375 C-32.66237987 51.16147091 -35.09580409 67.4612368 -35.31640625 86.65625 C-35.33701023 88.16939822 -35.35800752 89.68254114 -35.37937927 91.19567871 C-35.4342447 95.15425279 -35.48380874 99.11287571 -35.53222656 103.0715332 C-35.58270312 107.12064903 -35.63825186 111.16969502 -35.69335938 115.21875 C-35.80050554 123.14577557 -35.90157537 131.07286134 -36 139 C-43.59 139 -51.18 139 -59 139 C-59 94.12 -59 49.24 -59 3 C-52.73 3 -46.46 3 -40 3 C-40 17.85 -40 32.7 -40 48 C-38.68 48 -37.36 48 -36 48 C-35.97873047 46.83597656 -35.97873047 46.83597656 -35.95703125 45.6484375 C-35.34786003 31.85153248 -30.65999896 17.4276677 -21.20703125 7.02734375 C-19.53808 5.52786658 -17.8658032 4.24241568 -16 3 C-14.6078125 2.071875 -14.6078125 2.071875 -13.1875 1.125 C-8.75850268 -0.43817552 -4.64861733 -0.24804875 0 0 Z " fill="#2F2F35" transform="translate(341,544)"/>
<path d="M0 0 C7.76313949 3.98567315 10.42811976 12.22989573 13.1640625 20.046875 C14.54657695 26.58239784 15.01544503 32.9871212 15.0546875 39.64453125 C15.06323761 40.80606972 15.06323761 40.80606972 15.07196045 41.99107361 C15.08134698 43.62220929 15.08791894 45.2533634 15.09179688 46.88452148 C15.10144251 49.32896756 15.13250155 51.77254942 15.1640625 54.21679688 C15.26584004 69.36601467 14.39649972 88.4502281 3.3515625 99.9921875 C0.17116543 102.75847037 -2.46043451 103.22182013 -6.5859375 103.671875 C-12.1076473 103.09064239 -14.88840537 100.52690636 -18.7734375 96.734375 C-27.94300261 84.97020625 -27.48107085 68.0204783 -27.40917969 53.87036133 C-27.39847056 51.36710306 -27.40912465 48.86456455 -27.421875 46.36132812 C-27.44985917 15.98159551 -27.44985917 15.98159551 -18.7109375 4.796875 C-13.03459675 -0.74101841 -7.70673428 -2.52220395 0 0 Z " fill="#F0EACC" transform="translate(403.1484375,563.703125)"/>
<path d="M0 0 C6.65304316 3.39648666 9.23139845 9.5907255 11.85546875 16.29296875 C15.49834375 27.63900652 14.96218166 39.67846027 15.03070068 51.4850769 C15.04268017 53.43353176 15.06250311 55.3819334 15.08251953 57.33032227 C15.09626756 72.43646243 13.28665434 88.02891672 3.41796875 100.04296875 C-0.73272751 103.36352576 -4.95371851 103.83937009 -10.14453125 103.29296875 C-17.4801691 99.47843707 -20.87167474 94.76798127 -23.33203125 87.10546875 C-23.99814277 84.85202764 -24.59332273 82.57723462 -25.14453125 80.29296875 C-25.41595947 79.18840332 -25.41595947 79.18840332 -25.69287109 78.06152344 C-27.46341925 69.85562289 -27.44874297 61.72197921 -27.40527344 53.36914062 C-27.39458149 50.92943291 -27.40520581 48.49046627 -27.41796875 46.05078125 C-27.43213442 31.1646452 -26.94767805 15.40273832 -17.14453125 3.29296875 C-11.83429796 -1.39979555 -6.6402351 -2.18922141 0 0 Z " fill="#F0EACC" transform="translate(512.14453125,563.70703125)"/>
<path d="M0 0 C0.93779297 0.00322266 1.87558594 0.00644531 2.84179688 0.00976562 C4.30649414 0.02233398 4.30649414 0.02233398 5.80078125 0.03515625 C6.78884766 0.03966797 7.77691406 0.04417969 8.79492188 0.04882812 C11.23443599 0.06061322 13.67382814 0.07706614 16.11328125 0.09765625 C16.11328125 2.40765625 16.11328125 4.71765625 16.11328125 7.09765625 C14.67536609 6.95597488 13.23795755 6.80914582 11.80078125 6.66015625 C11.00027344 6.57894531 10.19976563 6.49773437 9.375 6.4140625 C7.11328125 6.09765625 7.11328125 6.09765625 4.11328125 5.09765625 C4.11328125 5.75765625 4.11328125 6.41765625 4.11328125 7.09765625 C4.69078125 7.18015625 5.26828125 7.26265625 5.86328125 7.34765625 C9.36421863 8.51463538 11.47921337 10.8295205 13.11328125 14.09765625 C13.92217836 20.60861496 13.01398102 24.82644035 9.11328125 30.09765625 C4.71030812 33.96693566 -1.2693897 34.2614514 -6.88671875 35.09765625 C-7.21671875 36.08765625 -7.54671875 37.07765625 -7.88671875 38.09765625 C-6.95730469 38.13503906 -6.02789063 38.17242187 -5.0703125 38.2109375 C10.29037096 39.02782473 10.29037096 39.02782473 14.765625 43.89453125 C17.12094712 47.74497088 16.61109778 51.73109412 16.11328125 56.09765625 C14.58972954 60.38264543 11.61712594 62.88001699 7.76171875 65.14453125 C2.1406873 67.16743932 -4.04334255 67.02062961 -9.88671875 66.09765625 C-13.58458594 64.04954011 -15.53797194 62.62077647 -17.88671875 59.09765625 C-18.31772487 55.83432421 -18.5814618 53.31553252 -16.90625 50.37890625 C-14.61379512 47.50099366 -12.35162909 45.38095637 -8.88671875 44.09765625 C-10.86671875 43.10765625 -12.84671875 42.11765625 -14.88671875 41.09765625 C-15.26171875 38.84765625 -15.26171875 38.84765625 -14.88671875 36.09765625 C-11.88671875 33.78515625 -11.88671875 33.78515625 -8.88671875 32.09765625 C-9.64984375 31.56140625 -10.41296875 31.02515625 -11.19921875 30.47265625 C-14.81148386 27.28042197 -16.55127299 24.57259146 -17.20703125 19.734375 C-17.48534177 13.62082049 -16.52672605 10.01658504 -12.88671875 5.09765625 C-8.69926509 1.21660164 -5.65123668 -0.03424992 0 0 Z " fill="#262627" transform="translate(706.88671875,355.90234375)"/>
<path d="M0 0 C4.89161239 1.2229031 7.47449176 3.55590481 10.265625 7.5703125 C15.37739724 17.61386499 14.34858293 32.53723592 11.8125 43.25 C10.15887822 48.21086533 7.75819649 51.37090176 3 53.75 C0.1875 54.125 0.1875 54.125 -3 53.75 C-6.62108011 50.86959536 -8.71169872 48.20049531 -10 43.75 C-10 42.76 -10 41.77 -10 40.75 C-10.66 40.75 -11.32 40.75 -12 40.75 C-11.67 41.884375 -11.34 43.01875 -11 44.1875 C-9.3140788 51.57230975 -9.84448467 59.2247859 -10 66.75 C-12.97 66.75 -15.94 66.75 -19 66.75 C-19 45.3 -19 23.85 -19 1.75 C-16.36 1.75 -13.72 1.75 -11 1.75 C-10.9727585 3.16655793 -10.95349533 4.58327045 -10.9375 6 C-10.92589844 6.78890625 -10.91429687 7.5778125 -10.90234375 8.390625 C-10.99614694 10.65691002 -11.36758937 12.5788895 -12 14.75 C-11.34 14.75 -10.68 14.75 -10 14.75 C-9.95875 13.739375 -9.9175 12.72875 -9.875 11.6875 C-9.05276809 6.01294174 -5.61621948 1.40405487 0 0 Z " fill="#282829" transform="translate(519,896.25)"/>
<path d="M0 0 C5.55958875 3.87878285 7.66259677 9.56464576 9 16 C10.07098276 26.93032405 10.56219029 39.54070282 3.4375 48.5625 C0.52626058 51.47373942 -0.24358909 51.90009667 -4.3125 52.4375 C-8 52 -8 52 -10.8125 49.375 C-13.18532027 46.3138189 -13.66731811 43.99804568 -15 40 C-15 48.25 -15 56.5 -15 65 C-17.64 65 -20.28 65 -23 65 C-23 43.55 -23 22.1 -23 0 C-20.69 0 -18.38 0 -16 0 C-15.67 3.96 -15.34 7.92 -15 12 C-14.608125 10.5975 -14.21625 9.195 -13.8125 7.75 C-11.34048826 0.46043979 -7.73914447 -2.34938314 0 0 Z " fill="#232325" transform="translate(631,193)"/>
<path d="M0 0 C4.92455555 1.73807843 8.32259944 4.5174308 11 9 C14.33675079 19.72193699 15.54612215 34.82894828 10.3125 45.078125 C7.30006024 49.4891975 4.72634975 52.41377458 -0.65234375 53.5703125 C-5.32077959 53.86489144 -9.08239349 53.53562535 -12.9375 50.75 C-20.17583384 43.21586887 -20.58036657 32.76944874 -20.47290039 22.8815918 C-20.21521062 15.93514158 -19.33248033 9.63002322 -14.46875 4.33203125 C-9.81202218 0.25739441 -6.07529555 -0.6132074 0 0 Z " fill="#252426" transform="translate(852,844)"/>
<path d="M0 0 C4.99643289 3.25854319 7.99934284 7.25793608 9.875 12.875 C10.2803221 16.61765424 10.19945208 20.3624849 10.1875 24.125 C10.20361328 25.12402344 10.21972656 26.12304688 10.23632812 27.15234375 C10.24139465 34.90412613 9.52558139 41.76056686 4.375 47.8125 C-0.2461315 51.62493349 -2.77572446 52.32823899 -8.62109375 52.18359375 C-12.39216139 51.71882878 -14.35855909 50.44383799 -17.125 47.875 C-22.09791454 41.2224918 -23.50015037 33.71073344 -23.4375 25.5625 C-23.43331055 24.81774414 -23.42912109 24.07298828 -23.42480469 23.30566406 C-23.27823608 16.13003941 -22.11736584 10.1040067 -18.3125 3.9375 C-12.80087214 -1.2591777 -7.17203065 -2.58193103 0 0 Z " fill="#242325" transform="translate(588.125,193.125)"/>
<path d="M0 0 C4.81344591 1.91975955 7.24055595 4.92639573 9.375 9.5625 C13.26295264 19.31618989 13.74897173 32.07396604 10 42 C8.02494309 46.22587649 6.04559299 49.23956874 2.25 52 C-3.36991453 53.72920447 -7.90427784 53.94900626 -13.3125 51.5 C-17.6855596 47.43203758 -20.73471766 41.6221102 -21.17700195 35.58325195 C-21.24356658 32.49290277 -21.28491867 29.40344806 -21.3125 26.3125 C-21.34150391 25.24837891 -21.37050781 24.18425781 -21.40039062 23.08789062 C-21.45874982 15.81992623 -20.73766449 9.82237927 -15.48120117 4.44677734 C-10.40211827 0.06945555 -6.57380156 -0.91602153 0 0 Z " fill="#232325" transform="translate(687,192)"/>
<path d="M0 0 C2.73594881 2.24488107 3.87511145 3.77773012 4.23828125 7.33203125 C4.24885617 9.57038993 4.17497555 11.76906176 4 14 C4.66 14 5.32 14 6 14 C6.0825 12.96875 6.165 11.9375 6.25 10.875 C7.07047695 6.63586911 8.34107982 4.36275199 11 1 C14.51253146 -1.34168764 15.86469356 -1.49623677 20 -1 C23.12607344 0.84722521 24.64891203 2.21046985 26.12841797 5.53759766 C27.25637525 10.01846326 27.2488085 14.17283331 27.1953125 18.7734375 C27.1924826 19.6971817 27.18965271 20.6209259 27.18673706 21.57266235 C27.17559179 24.50690976 27.15049765 27.4408457 27.125 30.375 C27.11496289 32.37108932 27.10583832 34.36718346 27.09765625 36.36328125 C27.07567097 41.24230649 27.04118017 46.12110054 27 51 C24.36 51 21.72 51 19 51 C18.970271 49.20598755 18.970271 49.20598755 18.93994141 47.37573242 C18.86391728 42.94192306 18.77519503 38.50844326 18.68261719 34.07495117 C18.64431423 32.15542096 18.60946367 30.23581865 18.578125 28.31616211 C18.53250298 25.5581687 18.4745042 22.80067223 18.4140625 20.04296875 C18.40251129 19.18350143 18.39096008 18.32403412 18.37905884 17.43852234 C18.35918915 16.63791885 18.33931946 15.83731537 18.31884766 15.01245117 C18.30552399 14.3085173 18.29220032 13.60458344 18.2784729 12.87931824 C18.08755815 10.66902536 18.08755815 10.66902536 16 8 C13.59122743 8.11341534 13.59122743 8.11341534 11 9 C7.05247709 14.21636956 6.8349105 19.26072765 6.68359375 25.609375 C6.66281265 26.33618469 6.64203156 27.06299438 6.62062073 27.81182861 C6.55544488 30.12445991 6.4963896 32.43720093 6.4375 34.75 C6.39428434 36.32162575 6.35066908 37.89324056 6.30664062 39.46484375 C6.19979644 43.30978453 6.09843976 47.15483524 6 51 C3.36 51 0.72 51 -2 51 C-2.01981934 49.83952148 -2.03963867 48.67904297 -2.06005859 47.48339844 C-2.13617912 43.17442266 -2.22488666 38.86578172 -2.31738281 34.55712891 C-2.3556459 32.69293838 -2.39050346 30.8286747 -2.421875 28.96435547 C-2.46758356 26.28326284 -2.52556822 23.60267267 -2.5859375 20.921875 C-2.59748871 20.08944275 -2.60903992 19.2570105 -2.62094116 18.39935303 C-2.72596801 12.92120392 -2.72596801 12.92120392 -5 8 C-7.3852733 7.87184635 -7.3852733 7.87184635 -10 9 C-15.45726978 16.6241269 -14.67035965 25.50990144 -14.75 34.5 C-14.7781948 36.10159432 -14.80812708 37.70315905 -14.83984375 39.3046875 C-14.91329515 43.2030716 -14.963122 47.1011054 -15 51 C-17.97 51 -20.94 51 -24 51 C-24 34.17 -24 17.34 -24 0 C-21.36 0 -18.72 0 -16 0 C-15.81548975 9.41002278 -15.81548975 9.41002278 -17 14 C-16.34 14 -15.68 14 -15 14 C-14.85304688 13.11248047 -14.85304688 13.11248047 -14.703125 12.20703125 C-13.74648024 7.15165852 -12.75233265 3.75233265 -9 0 C-5.77839187 -1.61080407 -3.42436421 -0.82657067 0 0 Z " fill="#201F22" transform="translate(837,356)"/>
<path d="M0 0 C2.73594881 2.24488107 3.87511145 3.77773012 4.23828125 7.33203125 C4.24885617 9.57038993 4.17497555 11.76906176 4 14 C4.66 14 5.32 14 6 14 C6.0825 12.96875 6.165 11.9375 6.25 10.875 C7.07047695 6.63586911 8.34107982 4.36275199 11 1 C14.51253146 -1.34168764 15.86469356 -1.49623677 20 -1 C23.12607344 0.84722521 24.64891203 2.21046985 26.12841797 5.53759766 C27.25637525 10.01846326 27.2488085 14.17283331 27.1953125 18.7734375 C27.1924826 19.6971817 27.18965271 20.6209259 27.18673706 21.57266235 C27.17559179 24.50690976 27.15049765 27.4408457 27.125 30.375 C27.11496289 32.37108932 27.10583832 34.36718346 27.09765625 36.36328125 C27.07567097 41.24230649 27.04118017 46.12110054 27 51 C24.36 51 21.72 51 19 51 C18.970271 49.20598755 18.970271 49.20598755 18.93994141 47.37573242 C18.86391728 42.94192306 18.77519503 38.50844326 18.68261719 34.07495117 C18.64431423 32.15542096 18.60946367 30.23581865 18.578125 28.31616211 C18.53250298 25.5581687 18.4745042 22.80067223 18.4140625 20.04296875 C18.40251129 19.18350143 18.39096008 18.32403412 18.37905884 17.43852234 C18.35918915 16.63791885 18.33931946 15.83731537 18.31884766 15.01245117 C18.30552399 14.3085173 18.29220032 13.60458344 18.2784729 12.87931824 C18.08755815 10.66902536 18.08755815 10.66902536 16 8 C13.59122743 8.11341534 13.59122743 8.11341534 11 9 C7.05247709 14.21636956 6.8349105 19.26072765 6.68359375 25.609375 C6.66281265 26.33618469 6.64203156 27.06299438 6.62062073 27.81182861 C6.55544488 30.12445991 6.4963896 32.43720093 6.4375 34.75 C6.39428434 36.32162575 6.35066908 37.89324056 6.30664062 39.46484375 C6.19979644 43.30978453 6.09843976 47.15483524 6 51 C3.36 51 0.72 51 -2 51 C-2.01981934 49.83952148 -2.03963867 48.67904297 -2.06005859 47.48339844 C-2.13617912 43.17442266 -2.22488666 38.86578172 -2.31738281 34.55712891 C-2.3556459 32.69293838 -2.39050346 30.8286747 -2.421875 28.96435547 C-2.46758356 26.28326284 -2.52556822 23.60267267 -2.5859375 20.921875 C-2.59748871 20.08944275 -2.60903992 19.2570105 -2.62094116 18.39935303 C-2.72596801 12.92120392 -2.72596801 12.92120392 -5 8 C-7.3852733 7.87184635 -7.3852733 7.87184635 -10 9 C-15.45726978 16.6241269 -14.67035965 25.50990144 -14.75 34.5 C-14.7781948 36.10159432 -14.80812708 37.70315905 -14.83984375 39.3046875 C-14.91329515 43.2030716 -14.963122 47.1011054 -15 51 C-17.97 51 -20.94 51 -24 51 C-24 34.17 -24 17.34 -24 0 C-21.36 0 -18.72 0 -16 0 C-15.81548975 9.41002278 -15.81548975 9.41002278 -17 14 C-16.34 14 -15.68 14 -15 14 C-14.85304688 13.11248047 -14.85304688 13.11248047 -14.703125 12.20703125 C-13.74648024 7.15165852 -12.75233265 3.75233265 -9 0 C-5.77839187 -1.61080407 -3.42436421 -0.82657067 0 0 Z " fill="#201F22" transform="translate(775,356)"/>
<path d="M0 0 C2.97 0 5.94 0 9 0 C9.14622803 1.17095215 9.29245605 2.3419043 9.44311523 3.54833984 C9.98548179 7.88360748 10.53265485 12.21825708 11.08129883 16.55273438 C11.31829342 18.43049825 11.55397589 20.3084282 11.78833008 22.18652344 C12.12498465 24.88260699 12.46631964 27.57806234 12.80859375 30.2734375 C12.96490517 31.53756973 12.96490517 31.53756973 13.12437439 32.82723999 C13.58835988 37.04372606 13.58835988 37.04372606 15 41 C15.14622803 39.79351807 15.29245605 38.58703613 15.44311523 37.34399414 C15.98484363 32.88382278 16.53220255 28.42435768 17.08129883 23.96508789 C17.31852334 22.03200893 17.55420374 20.09873985 17.78833008 18.1652832 C18.12439308 15.39223054 18.46593522 12.61990064 18.80859375 9.84765625 C18.91280136 8.97786636 19.01700897 8.10807648 19.12437439 7.21192932 C19.88612829 1.11387171 19.88612829 1.11387171 21 0 C22.85287502 -0.07226502 24.70833878 -0.0838122 26.5625 -0.0625 C27.57441406 -0.05347656 28.58632813 -0.04445313 29.62890625 -0.03515625 C30.80259766 -0.01775391 30.80259766 -0.01775391 32 0 C32.71813196 5.1403733 33.43000114 10.28156185 34.13623047 15.42358398 C34.37704823 17.1705633 34.61953745 18.9173131 34.86376953 20.66381836 C35.21572819 23.18283679 35.56154945 25.70263563 35.90625 28.22265625 C36.0156189 28.99585709 36.12498779 29.76905792 36.2376709 30.56568909 C36.84964523 35.09106686 37.10577252 39.43327155 37 44 C37.66 44 38.32 44 39 44 C39.03738281 42.99066406 39.07476562 41.98132813 39.11328125 40.94140625 C39.52696484 31.38958715 40.36896543 21.9317896 41.5 12.4375 C41.63059814 11.32511963 41.76119629 10.21273926 41.89575195 9.06665039 C42.08657349 7.51578735 42.08657349 7.51578735 42.28125 5.93359375 C42.39533203 5.00603271 42.50941406 4.07847168 42.62695312 3.12280273 C43 1 43 1 44 0 C46.67058851 -0.14115161 49.32432238 -0.04247107 52 0 C51.51456431 11.14727658 49.52791599 21.87714633 47.4375 32.8125 C47.10418298 34.58386506 46.77149623 36.35534883 46.43945312 38.12695312 C45.63354998 42.41936981 44.81917578 46.71009739 44 51 C40.04 51 36.08 51 32 51 C31.280573 46.16300141 30.56877535 41.32496143 29.86376953 36.48583984 C29.62330835 34.84263463 29.38083025 33.19972317 29.13623047 31.55712891 C28.78331602 29.18467951 28.43786972 26.81123908 28.09375 24.4375 C27.9843811 23.71320801 27.87501221 22.98891602 27.7623291 22.24267578 C27.07682877 17.44831129 26.90465285 12.84363534 27 8 C26.34 8 25.68 8 25 8 C25.02247803 8.54930176 25.04495605 9.09860352 25.06811523 9.66455078 C25.24122284 17.52539114 24.19149235 25.10878272 23.0625 32.875 C22.88009766 34.17953125 22.69769531 35.4840625 22.50976562 36.828125 C21.15676153 46.37295387 21.15676153 46.37295387 20 51 C16.04 51 12.08 51 8 51 C1.24947487 15.31683845 1.24947487 15.31683845 0 0 Z " fill="#252526" transform="translate(285,898)"/>
<path d="M0 0 C0.71000435 11.56760941 1.02961148 22.46244758 -3.125 33.4375 C-3.40802979 34.18620361 -3.69105957 34.93490723 -3.98266602 35.70629883 C-7.04322084 43.06673811 -11.60689931 50.52089379 -19 54 C-23.06321783 54.84836416 -26.41731035 54.92923067 -30.0625 52.7890625 C-34.36795737 49.25499958 -36.70882434 46.35460321 -37.40625 40.71484375 C-37.62590591 31.86454101 -36.85760076 25.04240848 -31 18 C-24.4918769 11.79003736 -9.40772801 0 0 0 Z " fill="#F0E9CE" transform="translate(460,470)"/>
<path d="M0 0 C4.26001325 2.62154662 5.60913202 5.34756141 7.25 10 C7.79395152 13.25920933 7.85463619 16.45023215 7.859375 19.75 C7.88417938 21.09807739 7.88417938 21.09807739 7.90948486 22.47338867 C7.95768104 25.31566392 7.97927224 28.1574053 8 31 C8.02818347 32.93882853 8.0581142 34.87763251 8.08984375 36.81640625 C8.16343212 41.54422682 8.21317962 46.27175594 8.25 51 C5.61 51 2.97 51 0.25 51 C0.25 46.71 0.25 42.42 0.25 38 C-0.41 38 -1.07 38 -1.75 38 C-1.8325 38.86625 -1.915 39.7325 -2 40.625 C-3.14914827 45.79616722 -5.35281734 49.0685449 -9.75 52 C-13.86136265 52.45681807 -16.01502493 52.45731782 -19.5625 50.25 C-22.77062953 46.95020962 -24.04416594 44.23254169 -24.125 39.625 C-23.96779184 33.63143887 -21.33237649 30.54470086 -17.125 26.4375 C-13.69012951 23.70019961 -9.79872051 21.93715575 -5.82421875 20.11328125 C-3.59709393 19.17468436 -3.59709393 19.17468436 -2.75 17 C-2.55331266 15.08596924 -2.55331266 15.08596924 -2.5625 13 C-2.54832031 12.29875 -2.53414063 11.5975 -2.51953125 10.875 C-2.58487677 8.75475062 -2.58487677 8.75475062 -4.75 7 C-7.4999925 6.64743686 -9.10599515 6.60899706 -11.5 8.0625 C-13.32905748 10.89753909 -13.43754809 13.68800975 -13.75 17 C-16.39 17 -19.03 17 -21.75 17 C-22.1243038 12.32120251 -22.19402217 8.92219989 -20.125 4.625 C-14.33122652 -1.77864438 -7.91408297 -2.11042213 0 0 Z " fill="#262627" transform="translate(365.75,898)"/>
<path d="M0 0 C2.97 0 5.94 0 9 0 C9.04975529 6.0831587 9.08588679 12.16619668 9.10986328 18.24951172 C9.11986782 20.31528794 9.13347571 22.3810502 9.15087891 24.44677734 C9.17537271 27.43069932 9.18653886 30.41443268 9.1953125 33.3984375 C9.20563507 34.30927094 9.21595764 35.22010437 9.22659302 36.15853882 C9.22832901 46.27325733 7.82849776 54.63516204 1.625 62.8125 C-2.79859005 66.0451235 -7.68333436 66.46637418 -13 66 C-18.19040153 64.32851476 -20.94296772 62.52440778 -24 58 C-21.525 55.525 -21.525 55.525 -19 53 C-18.195625 53.680625 -17.39125 54.36125 -16.5625 55.0625 C-12.99218032 57.45121388 -10.12976413 57.30795919 -5.984375 56.60546875 C-3.85116374 56.10213126 -3.85116374 56.10213126 -2.0625 54.3125 C1.01526202 47.61384149 1.55122842 41.29844309 2 34 C1.34 34 0.68 34 0 34 C-0.0825 34.86625 -0.165 35.7325 -0.25 36.625 C-1.39914827 41.79616722 -3.60281734 45.0685449 -8 48 C-11.89624286 48.42504468 -14.09128215 48.66311843 -17.3125 46.3125 C-21.13874478 41.06912752 -21.27558648 36.46242954 -21.1953125 30.19921875 C-21.1924826 29.36284378 -21.18965271 28.52646881 -21.18673706 27.66474915 C-21.1755832 25.00551774 -21.15048763 22.34662882 -21.125 19.6875 C-21.11496399 17.87956217 -21.10583923 16.07161904 -21.09765625 14.26367188 C-21.07565959 9.84231688 -21.04116294 5.42121642 -21 1 C-18.36 1 -15.72 1 -13 1 C-12.98018066 1.97348389 -12.96036133 2.94696777 -12.93994141 3.94995117 C-12.86364633 7.57504351 -12.77496664 11.19974694 -12.68261719 14.82446289 C-12.64442591 16.39079081 -12.60955606 17.95720349 -12.578125 19.52368164 C-12.53225929 21.780418 -12.47430231 24.03657583 -12.4140625 26.29296875 C-12.40251129 26.98899704 -12.39096008 27.68502533 -12.37905884 28.40214539 C-12.26037251 32.34631513 -11.71878696 35.43879404 -10 39 C-7.6147267 39.12815365 -7.6147267 39.12815365 -5 38 C-0.00224718 30.72385986 -0.33596614 23.01264668 -0.25 14.5 C-0.22179626 13.09110984 -0.19186277 11.68225319 -0.16015625 10.2734375 C-0.08978907 6.84890123 -0.03692415 3.42503295 0 0 Z " fill="#272729" transform="translate(814,845)"/>
<path d="M0 0 C5.22310612 1.63862153 7.29344846 4.36782756 10.01953125 8.8671875 C12.77019933 14.85071248 12 20.33872532 12 27 C4.41 27 -3.18 27 -11 27 C-10.71125 28.876875 -10.4225 30.75375 -10.125 32.6875 C-9.88136719 34.27111328 -9.88136719 34.27111328 -9.6328125 35.88671875 C-8.67962056 40.84716946 -8.67962056 40.84716946 -6 45 C-1.91603873 45.37559919 -1.91603873 45.37559919 1.8125 43.9375 C3.55729603 41.09072753 3.69042148 38.28153235 4 35 C6.64 35 9.28 35 12 35 C12.28971178 40.60109448 12.15976306 44.14750673 9 49 C4.57765753 53.00774787 0.26249229 53.35725971 -5.49609375 53.2734375 C-9.28176552 52.86002561 -11.23065712 51.57153267 -14 49 C-19.15820598 41.85148946 -19.23216425 35.31202272 -19.3125 26.8125 C-19.34150391 25.80896484 -19.37050781 24.80542969 -19.40039062 23.77148438 C-19.4640601 16.24379308 -18.33323324 9.92993534 -13.35253906 4.05761719 C-9.09380809 -0.24782747 -5.91544712 -0.84506387 0 0 Z " fill="#232325" transform="translate(893,355)"/>
<path d="M0 0 C2.64 0 5.28 0 8 0 C8 8.91 8 17.82 8 27 C9.32 24.36 10.64 21.72 12 19 C14.69476695 16.16340321 16.16137345 15.15724248 20 14.4375 C24.03778042 15.19458383 25.431804 16.86109377 28 20 C29.73500105 22.92154792 30.24696432 25.01606568 30.22705078 28.40136719 C30.22689972 29.2619574 30.22674866 30.12254761 30.22659302 31.00921631 C30.21627045 31.92914368 30.20594788 32.84907104 30.1953125 33.796875 C30.1924826 34.74564514 30.18965271 35.69441528 30.18673706 36.67193604 C30.17555448 39.69808639 30.1504533 42.7239393 30.125 45.75 C30.11496772 47.80338114 30.1058423 49.85676692 30.09765625 51.91015625 C30.07562141 56.94021854 30.04110462 61.97005886 30 67 C27.36 67 24.72 67 22 67 C21.98018066 65.87505127 21.96036133 64.75010254 21.93994141 63.59106445 C21.86371845 59.40692219 21.77502694 55.22312013 21.68261719 51.03930664 C21.64439633 49.23045582 21.6095315 47.42153079 21.578125 45.61254883 C21.53232443 43.00835698 21.47435526 40.404673 21.4140625 37.80078125 C21.40251129 36.99538406 21.39096008 36.18998688 21.37905884 35.36018372 C21.26887335 31.14339701 20.9240314 27.85143829 19 24 C16.11095637 23.69889182 16.11095637 23.69889182 13 25 C7.70830618 32.77356027 8.33592225 42.62714197 8.25 51.625 C8.22178342 53.1211274 8.19184824 54.61722343 8.16015625 56.11328125 C8.0869724 59.74204048 8.03698843 63.37067002 8 67 C5.36 67 2.72 67 0 67 C0 44.89 0 22.78 0 0 Z " fill="#1F1F22" transform="translate(526,177)"/>
<path d="M0 0 C2.64 0 5.28 0 8 0 C8 8.91 8 17.82 8 27 C9.32 24.36 10.64 21.72 12 19 C14.69476695 16.16340321 16.16137345 15.15724248 20 14.4375 C24.03778042 15.19458383 25.431804 16.86109377 28 20 C29.73500105 22.92154792 30.24696432 25.01606568 30.22705078 28.40136719 C30.22689972 29.2619574 30.22674866 30.12254761 30.22659302 31.00921631 C30.21627045 31.92914368 30.20594788 32.84907104 30.1953125 33.796875 C30.1924826 34.74564514 30.18965271 35.69441528 30.18673706 36.67193604 C30.17555448 39.69808639 30.1504533 42.7239393 30.125 45.75 C30.11496772 47.80338114 30.1058423 49.85676692 30.09765625 51.91015625 C30.07562141 56.94021854 30.04110462 61.97005886 30 67 C27.36 67 24.72 67 22 67 C21.98018066 65.87505127 21.96036133 64.75010254 21.93994141 63.59106445 C21.86371845 59.40692219 21.77502694 55.22312013 21.68261719 51.03930664 C21.64439633 49.23045582 21.6095315 47.42153079 21.578125 45.61254883 C21.53232443 43.00835698 21.47435526 40.404673 21.4140625 37.80078125 C21.40251129 36.99538406 21.39096008 36.18998688 21.37905884 35.36018372 C21.26887335 31.14339701 20.9240314 27.85143829 19 24 C16.11095637 23.69889182 16.11095637 23.69889182 13 25 C7.70830618 32.77356027 8.33592225 42.62714197 8.25 51.625 C8.22178342 53.1211274 8.19184824 54.61722343 8.16015625 56.11328125 C8.0869724 59.74204048 8.03698843 63.37067002 8 67 C5.36 67 2.72 67 0 67 C0 44.89 0 22.78 0 0 Z " fill="#1F1F22" transform="translate(224,124)"/>
<path d="M0 0 C4.25516055 2.86405037 6.59062203 5.08765033 8 10 C8.2625089 13.22815391 8.23273406 16.43885323 8.1953125 19.67578125 C8.1924826 20.6009404 8.18965271 21.52609955 8.18673706 22.47929382 C8.17557392 25.42382942 8.15047637 28.36805688 8.125 31.3125 C8.11496521 33.31314664 8.10584023 35.31379806 8.09765625 37.31445312 C8.07564722 42.2097535 8.04114391 47.10482457 8 52 C5.03 52 2.06 52 -1 52 C-1.01981934 50.76846191 -1.03963867 49.53692383 -1.06005859 48.26806641 C-1.13599182 43.70942339 -1.22472763 39.15110473 -1.31738281 34.59277344 C-1.35572349 32.61790356 -1.3905673 30.64296264 -1.421875 28.66796875 C-1.46741547 25.83307455 -1.52542715 22.9986717 -1.5859375 20.1640625 C-1.59748871 19.27756012 -1.60903992 18.39105774 -1.62094116 17.47769165 C-1.64081085 16.65699188 -1.66068054 15.83629211 -1.68115234 14.99072266 C-1.69447601 14.26680328 -1.70779968 13.54288391 -1.7215271 12.79702759 C-1.85787921 10.74846505 -1.85787921 10.74846505 -4 9 C-6.48599612 8.69384054 -6.48599612 8.69384054 -9 10 C-14.4402194 17.64842654 -13.67024112 26.49652046 -13.75 35.5 C-13.7781948 37.10159432 -13.80812708 38.70315905 -13.83984375 40.3046875 C-13.91329515 44.2030716 -13.963122 48.1011054 -14 52 C-16.97 52 -19.94 52 -23 52 C-23 35.17 -23 18.34 -23 1 C-20.69 1 -18.38 1 -16 1 C-16 5.62 -16 10.24 -16 15 C-15.34 15 -14.68 15 -14 15 C-13.9175 13.96875 -13.835 12.9375 -13.75 11.875 C-12.92952305 7.63586911 -11.65892018 5.36275199 -9 2 C-5.45870816 -0.36086122 -4.17249782 -0.57269578 0 0 Z " fill="#272728" transform="translate(731,192)"/>
<path d="M0 0 C1.010625 -0.00773437 2.02125 -0.01546875 3.0625 -0.0234375 C7.67459627 0.60213939 10.22037932 2.48709868 13.25 5.9375 C16.64990891 10.6730874 16.5625993 14.66059855 16 20.375 C13.03893206 31.77332778 5.0913717 41.40001852 -1.71142578 50.78027344 C-4.04017823 53.96236072 -4.04017823 53.96236072 -6 57.375 C1.26 57.375 8.52 57.375 16 57.375 C16 59.685 16 61.995 16 64.375 C5.77 64.375 -4.46 64.375 -15 64.375 C-15 53.13057056 -15 53.13057056 -11.89453125 49.33984375 C-10.91323242 48.09557617 -10.91323242 48.09557617 -9.91210938 46.82617188 C-8.87280273 45.5819043 -8.87280273 45.5819043 -7.8125 44.3125 C2.63277222 31.7712729 2.63277222 31.7712729 6.125 16.3125 C6.12757813 15.45527344 6.13015625 14.59804688 6.1328125 13.71484375 C6.09365135 11.21935799 6.09365135 11.21935799 5 8.375 C3.741875 8.2925 2.48375 8.21 1.1875 8.125 C0.12595703 8.05539062 0.12595703 8.05539062 -0.95703125 7.984375 C-3.14693803 8.20752411 -3.14693803 8.20752411 -4.71875 10.0625 C-6.18690358 12.71233817 -6.48948933 14.61523778 -6.6875 17.625 C-6.75324219 18.51703125 -6.81898438 19.4090625 -6.88671875 20.328125 C-6.92410156 21.00359375 -6.96148438 21.6790625 -7 22.375 C-9.64 22.375 -12.28 22.375 -15 22.375 C-15.44219872 14.89447166 -15.75320994 9.41286128 -11 3.375 C-7.2629708 0.64137279 -4.60553578 -0.03524645 0 0 Z " fill="#222224" transform="translate(945,342.625)"/>
<path d="M0 0 C2.64 0 5.28 0 8 0 C8.02505615 1.11971191 8.0501123 2.23942383 8.07592773 3.39306641 C8.17040014 7.5640728 8.2705222 11.73492807 8.37231445 15.90576172 C8.41551311 17.70780898 8.45719824 19.5098932 8.49731445 21.31201172 C8.55538376 23.90864175 8.6189708 26.5050883 8.68359375 29.1015625 C8.70030624 29.9017984 8.71701874 30.7020343 8.73423767 31.52651978 C8.8456937 35.7753553 9.17753083 39.81448075 10 44 C12.87866256 44.13478935 12.87866256 44.13478935 16 43 C20.23095974 37.24009531 21.10963154 31.01813665 21.31640625 24.046875 C21.33718735 23.38665344 21.35796844 22.72643188 21.37937927 22.04620361 C21.44450147 19.94756985 21.50358502 17.84881628 21.5625 15.75 C21.60572079 14.32290453 21.6493362 12.89582095 21.69335938 11.46875 C21.80014411 7.97929278 21.90151566 4.48970247 22 1 C24.64 1 27.28 1 30 1 C30 17.5 30 34 30 51 C27.69 51 25.38 51 23 51 C22.505 44.565 22.505 44.565 22 38 C21.4225 39.753125 20.845 41.50625 20.25 43.3125 C18.88483956 47.45673704 17.87663339 49.82793454 14 52 C8.90909091 52.72727273 8.90909091 52.72727273 6 52 C2.90626145 49.58870378 1.23900485 46.71701454 0 43 C-0.08610514 41.57281363 -0.11771828 40.14193352 -0.11352539 38.7121582 C-0.11344986 37.85149246 -0.11337433 36.99082672 -0.11329651 36.1040802 C-0.10813522 35.17899155 -0.10297394 34.25390289 -0.09765625 33.30078125 C-0.0962413 32.35059616 -0.09482635 31.40041107 -0.09336853 30.4214325 C-0.08776875 27.38508971 -0.07521632 24.34882052 -0.0625 21.3125 C-0.05748497 19.25455836 -0.05292207 17.19661556 -0.04882812 15.13867188 C-0.0377994 10.09241954 -0.02053493 5.04622225 0 0 Z " fill="#1F1F22" transform="translate(459,898)"/>
<path d="M0 0 C3.70933667 2.18513651 6.0936481 3.8900452 7.6484375 8.015625 C7.89480362 10.71579769 7.73909416 13.29592506 7.6484375 16.015625 C5.3384375 16.015625 3.0284375 16.015625 0.6484375 16.015625 C0.3803125 15.0875 0.1121875 14.159375 -0.1640625 13.203125 C-1.48915697 9.4626112 -1.48915697 9.4626112 -4.3515625 7.015625 C-7.39367681 6.5988698 -7.39367681 6.5988698 -10.3515625 7.015625 C-12.69203704 8.94920744 -12.69203704 8.94920744 -12.7890625 12.390625 C-12.73822479 16.07871905 -12.73822479 16.07871905 -10.23828125 17.9921875 C-6.07032073 20.91370786 -1.70201579 23.44419241 2.6875 26.015625 C5.47104029 27.89579997 7.07044423 29.08428334 8.6484375 32.015625 C9.37411944 36.78947385 9.25399038 41.43445913 7.5234375 45.953125 C4.16300483 49.64960094 1.69514144 51.75783405 -3.421875 52.40234375 C-8.45325449 52.56852827 -12.32137226 52.45967252 -16.9765625 50.453125 C-20.72243126 46.60868075 -22.20645989 42.97451018 -22.6015625 37.640625 C-22.3515625 35.015625 -22.3515625 35.015625 -21.3515625 34.015625 C-19.01858817 33.97469563 -16.68451025 33.97320777 -14.3515625 34.015625 C-13.89583333 36.03385417 -13.44010417 38.05208333 -12.984375 40.0703125 C-12.44681822 42.22282464 -12.44681822 42.22282464 -10.3515625 44.015625 C-8.44335189 44.37075879 -8.44335189 44.37075879 -6.3515625 44.328125 C-5.6503125 44.34488281 -4.9490625 44.36164062 -4.2265625 44.37890625 C-3.6078125 44.25902344 -2.9890625 44.13914062 -2.3515625 44.015625 C-0.0364188 40.54290945 -0.09702487 39.08822703 -0.3515625 35.015625 C-0.6815625 34.025625 -1.0115625 33.035625 -1.3515625 32.015625 C-3.63196276 30.93496786 -3.63196276 30.93496786 -6.3515625 30.015625 C-18.22612527 24.27204216 -18.22612527 24.27204216 -21.3515625 19.015625 C-23.11230838 13.73338736 -23.14782054 9.63876639 -20.7265625 4.703125 C-15.34062701 -1.39148621 -7.58311139 -3.1743257 0 0 Z " fill="#242426" transform="translate(441.3515625,897.984375)"/>
<path d="M0 0 C3.04716721 2.10399641 4.79192558 3.56936833 6.625 6.8125 C6.94094936 9.84459465 6.86308059 12.77697246 6.625 15.8125 C4.315 15.8125 2.005 15.8125 -0.375 15.8125 C-0.643125 14.69875 -0.91125 13.585 -1.1875 12.4375 C-2.03309019 8.59409049 -2.03309019 8.59409049 -5.375 6.8125 C-8.41695427 6.47909529 -8.41695427 6.47909529 -11.375 6.8125 C-13.71547454 8.74608244 -13.71547454 8.74608244 -13.8125 12.1875 C-13.76043527 15.88356548 -13.76043527 15.88356548 -11.2265625 17.82421875 C-7.38019972 20.50613472 -3.33078793 22.69655473 0.78515625 24.93359375 C4.36985183 27.30531118 6.70405174 29.97060348 8.625 33.8125 C9.02831428 39.05558569 8.48551133 42.37377553 5.625 46.8125 C1.3972455 50.62779064 -1.04416099 51.96181773 -6.6875 52 C-8.10482422 52.02126953 -8.10482422 52.02126953 -9.55078125 52.04296875 C-14.15052393 51.66760939 -16.74867924 50.36922957 -20.1875 47.3125 C-23.41182719 43.26193897 -22.81274529 38.73470259 -22.375 33.8125 C-19.735 33.8125 -17.095 33.8125 -14.375 33.8125 C-14.24222656 34.45058594 -14.10945313 35.08867188 -13.97265625 35.74609375 C-13.79605469 36.57238281 -13.61945313 37.39867187 -13.4375 38.25 C-13.26347656 39.07371094 -13.08945312 39.89742187 -12.91015625 40.74609375 C-12.56747006 42.78911204 -12.56747006 42.78911204 -11.375 43.8125 C-7.35842857 44.04168242 -7.35842857 44.04168242 -3.375 43.8125 C-1.02686266 41.88082602 -1.02686266 41.88082602 -1 38.4375 C-1.44529481 34.13298351 -2.15933484 33.52927613 -5.375 30.8125 C-7.15493324 29.77531088 -8.970421 28.79731695 -10.8125 27.875 C-15.70723307 25.29366547 -19.82531094 22.91187811 -22.375 17.8125 C-22.87393401 13.45039121 -23.37645931 8.85147116 -21.3984375 4.82421875 C-15.77999632 -2.12127755 -8.10953807 -2.85335599 0 0 Z " fill="#242325" transform="translate(404.375,898.1875)"/>
<path d="M0 0 C3.52323268 1.23313144 4.84789957 2.62833742 6.5625 5.90625 C7.85949528 10.01340172 7.82925153 13.84330835 7.8125 18.125 C7.82861328 18.93324219 7.84472656 19.74148437 7.86132812 20.57421875 C7.86591011 26.30170317 7.15498002 31.72117462 4.5 36.875 C1.5 38.875 1.5 38.875 -1.5 38.8125 C-4.5 37.875 -4.5 37.875 -6.3125 35.6875 C-8.66031579 30.12688366 -8.70793486 24.3844589 -8.75 18.4375 C-8.770625 17.71240234 -8.79125 16.98730469 -8.8125 16.24023438 C-8.85539781 10.27207688 -7.55577758 5.86522194 -4.125 0.875 C-2.5 -0.125 -2.5 -0.125 0 0 Z " fill="#EBE5C8" transform="translate(682.5,199.125)"/>
<path d="M0 0 C3.27706363 2.30608182 3.9721548 5.22695158 5 9 C5.30153797 11.96341482 5.32492435 14.89812587 5.3125 17.875 C5.32861328 18.63941406 5.34472656 19.40382812 5.36132812 20.19140625 C5.36638639 26.15004566 4.58050004 31.99469593 0.5480957 36.69091797 C-1 38 -1 38 -3.4375 38.5625 C-6 38 -6 38 -8.25 35.375 C-11.26509586 29.56017226 -11.23207379 23.54837302 -11.3125 17.125 C-11.34150391 16.36058594 -11.37050781 15.59617188 -11.40039062 14.80859375 C-11.46307738 9.12820917 -10.26896288 4.71170634 -7 0 C-4.26634878 -1.36682561 -2.89333621 -0.84683011 0 0 Z " fill="#EBE5C8" transform="translate(585,200)"/>
<path d="M0 0 C2.86447014 1.11784201 4.09687059 2.36695331 5.73120117 4.94921875 C7.53638555 9.40253704 7.08851287 14.27169963 7 19 C7.00708984 20.06734375 7.01417969 21.1346875 7.02148438 22.234375 C6.96707566 28.96431394 6.53856312 34.02393688 1.5625 39 C-1.19715374 39.35380176 -2.77869108 39.43920595 -5.125 37.875 C-9.12862025 32.1555425 -8.77216685 25.68552211 -8.75 19 C-8.76611328 18.02804687 -8.78222656 17.05609375 -8.79882812 16.0546875 C-8.80251267 10.64578025 -8.59411679 6.61294818 -5.4375 2 C-2.4375 0 -2.4375 0 0 0 Z " fill="#EDE7CA" transform="translate(849.4375,851)"/>
<path d="M0 0 C3.12607344 1.84722521 4.64891203 3.21046985 6.12841797 6.53759766 C7.25637525 11.01846326 7.2488085 15.17283331 7.1953125 19.7734375 C7.1924826 20.6971817 7.18965271 21.6209259 7.18673706 22.57266235 C7.17559179 25.50690976 7.15049765 28.4408457 7.125 31.375 C7.11496289 33.37108932 7.10583832 35.36718346 7.09765625 37.36328125 C7.07567097 42.24230649 7.04118017 47.12110054 7 52 C4.36 52 1.72 52 -1 52 C-1.01981934 50.8039917 -1.03963867 49.6079834 -1.06005859 48.37573242 C-1.13608272 43.94192306 -1.22480497 39.50844326 -1.31738281 35.07495117 C-1.35568577 33.15542096 -1.39053633 31.23581865 -1.421875 29.31616211 C-1.46749702 26.5581687 -1.5254958 23.80067223 -1.5859375 21.04296875 C-1.59748871 20.18350143 -1.60903992 19.32403412 -1.62094116 18.43852234 C-1.64081085 17.63791885 -1.66068054 16.83731537 -1.68115234 16.01245117 C-1.69447601 15.3085173 -1.70779968 14.60458344 -1.7215271 13.87931824 C-1.91244185 11.66902536 -1.91244185 11.66902536 -4 9 C-6.43717258 9.27034634 -6.43717258 9.27034634 -9 10 C-9.99 11.485 -9.99 11.485 -11 13 C-11.66 13 -12.32 13 -13 13 C-12.58634898 7.72594947 -11.71026864 4.82270102 -8 1 C-5.14675563 -0.42662219 -3.16545451 -0.31033868 0 0 Z " fill="#1F1F22" transform="translate(857,355)"/>
<path d="M0 0 C3.12607344 1.84722521 4.64891203 3.21046985 6.12841797 6.53759766 C7.25637525 11.01846326 7.2488085 15.17283331 7.1953125 19.7734375 C7.1924826 20.6971817 7.18965271 21.6209259 7.18673706 22.57266235 C7.17559179 25.50690976 7.15049765 28.4408457 7.125 31.375 C7.11496289 33.37108932 7.10583832 35.36718346 7.09765625 37.36328125 C7.07567097 42.24230649 7.04118017 47.12110054 7 52 C4.36 52 1.72 52 -1 52 C-1.01981934 50.8039917 -1.03963867 49.6079834 -1.06005859 48.37573242 C-1.13608272 43.94192306 -1.22480497 39.50844326 -1.31738281 35.07495117 C-1.35568577 33.15542096 -1.39053633 31.23581865 -1.421875 29.31616211 C-1.46749702 26.5581687 -1.5254958 23.80067223 -1.5859375 21.04296875 C-1.59748871 20.18350143 -1.60903992 19.32403412 -1.62094116 18.43852234 C-1.64081085 17.63791885 -1.66068054 16.83731537 -1.68115234 16.01245117 C-1.69447601 15.3085173 -1.70779968 14.60458344 -1.7215271 13.87931824 C-1.91244185 11.66902536 -1.91244185 11.66902536 -4 9 C-6.43717258 9.27034634 -6.43717258 9.27034634 -9 10 C-9.99 11.485 -9.99 11.485 -11 13 C-11.66 13 -12.32 13 -13 13 C-12.58634898 7.72594947 -11.71026864 4.82270102 -8 1 C-5.14675563 -0.42662219 -3.16545451 -0.31033868 0 0 Z " fill="#1F1F22" transform="translate(795,355)"/>
<path d="M0 0 C2.97 0 5.94 0 9 0 C9 16.83 9 33.66 9 51 C6.03 51 3.06 51 0 51 C0 34.17 0 17.34 0 0 Z " fill="#2B2B2B" transform="translate(265,140)"/>
<path d="M0 0 C2.64 0 5.28 0 8 0 C8.01981934 0.97348389 8.03963867 1.94696777 8.06005859 2.94995117 C8.13635367 6.57504351 8.22503336 10.19974694 8.31738281 13.82446289 C8.35557409 15.39079081 8.39044394 16.95720349 8.421875 18.52368164 C8.46774071 20.780418 8.52569769 23.03657583 8.5859375 25.29296875 C8.59748871 25.98899704 8.60903992 26.68502533 8.62094116 27.40214539 C8.73962749 31.34631513 9.28121304 34.43879404 11 38 C13.40877257 37.88658466 13.40877257 37.88658466 16 37 C17.84434349 34.53884453 17.84434349 34.53884453 19 32 C20.32 32.33 21.64 32.66 23 33 C22.34 33 21.68 33 21 33 C20.9175 33.86625 20.835 34.7325 20.75 35.625 C19.60085173 40.79616722 17.39718266 44.0685449 13 47 C9.10375714 47.42504468 6.90871785 47.66311843 3.6875 45.3125 C-0.13874478 40.06912752 -0.27558648 35.46242954 -0.1953125 29.19921875 C-0.1924826 28.36284378 -0.18965271 27.52646881 -0.18673706 26.66474915 C-0.1755832 24.00551774 -0.15048763 21.34662882 -0.125 18.6875 C-0.11496399 16.87956217 -0.10583923 15.07161904 -0.09765625 13.26367188 C-0.07565959 8.84231688 -0.04116294 4.42121642 0 0 Z " fill="#202023" transform="translate(793,846)"/>
<path d="M0 0 C2.375 0.125 2.375 0.125 5 1 C10.29817358 7.62271697 9.40230046 16.96380296 9 25 C8.37494641 29.0918457 7.53320544 33.66683494 5 37 C2.375 37.75 2.375 37.75 0 38 C-6.21201412 31.16678447 -6.48664856 23.63675954 -6.3984375 14.75390625 C-5.8269507 9.36960412 -3.92449849 3.92449849 0 0 Z " fill="#EAE4C7" transform="translate(515,905)"/>
<path d="M0 0 C2.3125 0.0625 2.3125 0.0625 5 1 C8.04361362 6.50163887 8.4642739 11.16550413 8.375 17.375 C8.38660156 18.17421875 8.39820313 18.9734375 8.41015625 19.796875 C8.37925724 26.16207187 7.68370399 33.31629601 3 38 C0.625 38.125 0.625 38.125 -2 37 C-6.67568028 30.20323297 -7.64651812 23.06993154 -7 15 C-5.84102138 9.111366 -4.25205971 4.39868246 0 0 Z " fill="#EBE5C8" transform="translate(623,200)"/>
<path d="M0 0 C2.64 0 5.28 0 8 0 C8.18451025 9.41002278 8.18451025 9.41002278 7 14 C7.99 13.67 8.98 13.34 10 13 C9.67 25.54 9.34 38.08 9 51 C6.03 51 3.06 51 0 51 C0 34.17 0 17.34 0 0 Z " fill="#2B2B2C" transform="translate(813,356)"/>
<path d="M0 0 C2.64 0 5.28 0 8 0 C8.18451025 9.41002278 8.18451025 9.41002278 7 14 C7.99 13.67 8.98 13.34 10 13 C9.67 25.54 9.34 38.08 9 51 C6.03 51 3.06 51 0 51 C0 34.17 0 17.34 0 0 Z " fill="#2B2B2C" transform="translate(751,356)"/>
<path d="M0 0 C2.64 0 5.28 0 8 0 C8 16.5 8 33 8 50 C5.36 50 2.72 50 0 50 C0 33.5 0 17 0 0 Z " fill="#1D1D20" transform="translate(732,357)"/>
<path d="M0 0 C2.76215522 2.9462989 3.21867989 5.5919973 3.375 9.5 C3.21220253 13.40062743 2.86431403 16.13568597 0 19 C-3.4375 19.6875 -3.4375 19.6875 -7 19 C-10.04648266 15.8754024 -11.24205485 13.22914966 -11.4375 8.9375 C-11.00150788 5.01357091 -10.41643734 3.06701662 -8 0 C-5.00422405 -1.49788797 -3.16806651 -0.90516186 0 0 Z " fill="#E7E1C5" transform="translate(709,364)"/>
<path d="M0 0 C2.86663106 0.55934265 4.3052758 1.45270513 6.40234375 3.46875 C6.9130802 6.89798043 6.80848115 8.75317457 5.08984375 11.78125 C2.37879513 14.49229862 -0.37103916 14.64460261 -4.03515625 14.71875 C-6.90107617 14.67207378 -8.50401082 14.50986263 -11.16015625 13.34375 C-12.59765625 11.46875 -12.59765625 11.46875 -13.16015625 8.59375 C-12.59765625 5.46875 -12.59765625 5.46875 -10.72265625 2.59375 C-6.89665433 -0.0079313 -4.51783046 -0.05568974 0 0 Z " fill="#EDE7CA" transform="translate(708.59765625,400.53125)"/>
<path d="M0 0 C0.38773189 6.20371025 0.03313704 11.465173 -3 17 C-4.875 19.0625 -4.875 19.0625 -7 20 C-9.6875 19.8125 -9.6875 19.8125 -12 19 C-13.76404169 15.47191662 -13.79813386 11.82975521 -13 8 C-10.0900908 4.20272837 -4.97392235 0 0 0 Z " fill="#EBE5C8" transform="translate(364,923)"/>
<path d="M0 0 C2.9375 0.5625 2.9375 0.5625 4.578125 2.26953125 C6.89046042 6.16993612 6.64313188 10.08810464 6.9375 14.5625 C1.9875 14.5625 -2.9625 14.5625 -8.0625 14.5625 C-7.58140887 6.5042235 -7.58140887 6.5042235 -5.375 2.5 C-3.0625 0.5625 -3.0625 0.5625 0 0 Z " fill="#E9E4C7" transform="translate(890.0625,362.4375)"/>
<path d="M0 0 C2.64 0 5.28 0 8 0 C8.02726927 2.35424675 8.04696719 4.70816962 8.0625 7.0625 C8.07410156 8.37347656 8.08570313 9.68445313 8.09765625 11.03515625 C8.00452335 14.8163519 7.61448726 18.27920707 7 22 C5.02 22 3.04 22 1 22 C0.00137301 14.63512596 -0.10331031 7.42686315 0 0 Z " fill="#2B2A2B" transform="translate(547,882)"/>
<path d="M0 0 C2.64 0 5.28 0 8 0 C8.09377123 7.41834582 8.17402193 14.66236293 7 22 C5.02 22 3.04 22 1 22 C0.08839714 14.64206267 -0.11459026 7.41017023 0 0 Z " fill="#29282A" transform="translate(867,829)"/>
<path d="M0 0 C2.64 0 5.28 0 8 0 C8.09377123 7.41834582 8.17402193 14.66236293 7 22 C5.02 22 3.04 22 1 22 C0.08839714 14.64206267 -0.11459026 7.41017023 0 0 Z " fill="#29282A" transform="translate(667,340)"/>
<path d="M0 0 C2.64 0 5.28 0 8 0 C8.09377123 7.41834582 8.17402193 14.66236293 7 22 C5.02 22 3.04 22 1 22 C0.08839714 14.64206267 -0.11459026 7.41017023 0 0 Z " fill="#29282A" transform="translate(743,177)"/>
<path d="M0 0 C2.64 0 5.28 0 8 0 C7.67 7.26 7.34 14.52 7 22 C5.02 22 3.04 22 1 22 C0.02700844 17.14270355 -0.12038805 12.5499375 -0.0625 7.625 C-0.05798828 6.88894531 -0.05347656 6.15289063 -0.04882812 5.39453125 C-0.03715142 3.59631842 -0.01922011 1.79814803 0 0 Z " fill="#262627" transform="translate(261,882)"/>
<path d="M0 0 C2.64 0 5.28 0 8 0 C7.67 7.26 7.34 14.52 7 22 C5.02 22 3.04 22 1 22 C0.02700844 17.14270355 -0.12038805 12.5499375 -0.0625 7.625 C-0.05798828 6.88894531 -0.05347656 6.15289063 -0.04882812 5.39453125 C-0.03715142 3.59631842 -0.01922011 1.79814803 0 0 Z " fill="#262627" transform="translate(767,829)"/>
<path d="M0 0 C2.64 0 5.28 0 8 0 C7.67 7.26 7.34 14.52 7 22 C5.02 22 3.04 22 1 22 C0.02700844 17.14270355 -0.12038805 12.5499375 -0.0625 7.625 C-0.05798828 6.88894531 -0.05347656 6.15289062 -0.04882812 5.39453125 C-0.03715142 3.59631842 -0.01922011 1.79814803 0 0 Z " fill="#262627" transform="translate(967,340)"/>
<path d="M0 0 C2.64 0 5.28 0 8 0 C7.67 7.26 7.34 14.52 7 22 C5.02 22 3.04 22 1 22 C0.02700844 17.14270355 -0.12038805 12.5499375 -0.0625 7.625 C-0.05798828 6.88894531 -0.05347656 6.15289062 -0.04882812 5.39453125 C-0.03715142 3.59631842 -0.01922011 1.79814803 0 0 Z " fill="#262627" transform="translate(498,177)"/>
<path d="M0 0 C2.64 0 5.28 0 8 0 C7.67 7.26 7.34 14.52 7 22 C5.02 22 3.04 22 1 22 C0.02700844 17.14270355 -0.12038805 12.5499375 -0.0625 7.625 C-0.05798828 6.88894531 -0.05347656 6.15289062 -0.04882812 5.39453125 C-0.03715142 3.59631842 -0.01922011 1.79814803 0 0 Z " fill="#262627" transform="translate(281,124)"/>
<path d="M0 0 C2.64 0 5.28 0 8 0 C7.67 7.26 7.34 14.52 7 22 C5.02 22 3.04 22 1 22 C0.02700844 17.14270355 -0.12038805 12.5499375 -0.0625 7.625 C-0.05798828 6.88894531 -0.05347656 6.15289062 -0.04882812 5.39453125 C-0.03715142 3.59631842 -0.01922011 1.79814803 0 0 Z " fill="#262627" transform="translate(196,124)"/>
<path d="M0 0 C2.31 0 4.62 0 7 0 C7 7.26 7 14.52 7 22 C5.02 22 3.04 22 1 22 C0.02700844 17.14270355 -0.12038805 12.5499375 -0.0625 7.625 C-0.05798828 6.88894531 -0.05347656 6.15289063 -0.04882812 5.39453125 C-0.03715142 3.59631842 -0.01922011 1.79814803 0 0 Z " fill="#252526" transform="translate(535,882)"/>
<path d="M0 0 C2.31 0 4.62 0 7 0 C7.02726927 2.35424675 7.04696719 4.70816962 7.0625 7.0625 C7.07410156 8.37347656 7.08570313 9.68445313 7.09765625 11.03515625 C7.00452335 14.8163519 6.61448726 18.27920707 6 22 C4.02 22 2.04 22 0 22 C0 14.74 0 7.48 0 0 Z " fill="#242426" transform="translate(274,882)"/>
<path d="M0 0 C2.31 0 4.62 0 7 0 C7 7.26 7 14.52 7 22 C5.02 22 3.04 22 1 22 C0.16788724 16.96145894 -0.1078534 12.1874338 -0.0625 7.0625 C-0.05798828 6.37865234 -0.05347656 5.69480469 -0.04882812 4.99023438 C-0.0371956 3.32678396 -0.01926694 1.6633795 0 0 Z " fill="#242426" transform="translate(880,829)"/>
<path d="M0 0 C2.31 0 4.62 0 7 0 C7.02726927 2.35424675 7.04696719 4.70816962 7.0625 7.0625 C7.07410156 8.37347656 7.08570313 9.68445313 7.09765625 11.03515625 C7.00452335 14.8163519 6.61448726 18.27920707 6 22 C4.02 22 2.04 22 0 22 C0 14.74 0 7.48 0 0 Z " fill="#242426" transform="translate(780,829)"/>
<path d="M0 0 C2.31 0 4.62 0 7 0 C7.02726927 2.35424675 7.04696719 4.70816962 7.0625 7.0625 C7.07410156 8.37347656 7.08570313 9.68445313 7.09765625 11.03515625 C7.00452335 14.8163519 6.61448726 18.27920707 6 22 C4.02 22 2.04 22 0 22 C0 14.74 0 7.48 0 0 Z " fill="#242426" transform="translate(980,340)"/>
<path d="M0 0 C2.31 0 4.62 0 7 0 C7 7.26 7 14.52 7 22 C5.02 22 3.04 22 1 22 C0.16788724 16.96145894 -0.1078534 12.1874338 -0.0625 7.0625 C-0.05798828 6.37865234 -0.05347656 5.69480469 -0.04882812 4.99023438 C-0.0371956 3.32678396 -0.01926694 1.6633795 0 0 Z " fill="#242426" transform="translate(680,340)"/>
<path d="M0 0 C2.31 0 4.62 0 7 0 C7 7.26 7 14.52 7 22 C5.02 22 3.04 22 1 22 C0.16788724 16.96145894 -0.1078534 12.1874338 -0.0625 7.0625 C-0.05798828 6.37865234 -0.05347656 5.69480469 -0.04882812 4.99023438 C-0.0371956 3.32678396 -0.01926694 1.6633795 0 0 Z " fill="#242426" transform="translate(756,177)"/>
<path d="M0 0 C2.31 0 4.62 0 7 0 C7.02726927 2.35424675 7.04696719 4.70816962 7.0625 7.0625 C7.07410156 8.37347656 7.08570313 9.68445313 7.09765625 11.03515625 C7.00452335 14.8163519 6.61448726 18.27920707 6 22 C4.02 22 2.04 22 0 22 C0 14.74 0 7.48 0 0 Z " fill="#242426" transform="translate(511,177)"/>
<path d="M0 0 C2.31 0 4.62 0 7 0 C7.02726927 2.35424675 7.04696719 4.70816962 7.0625 7.0625 C7.07410156 8.37347656 7.08570313 9.68445313 7.09765625 11.03515625 C7.00452335 14.8163519 6.61448726 18.27920707 6 22 C4.02 22 2.04 22 0 22 C0 14.74 0 7.48 0 0 Z " fill="#242426" transform="translate(294,124)"/>
<path d="M0 0 C2.31 0 4.62 0 7 0 C7.02726927 2.35424675 7.04696719 4.70816962 7.0625 7.0625 C7.07410156 8.37347656 7.08570313 9.68445313 7.09765625 11.03515625 C7.00452335 14.8163519 6.61448726 18.27920707 6 22 C4.02 22 2.04 22 0 22 C0 14.74 0 7.48 0 0 Z " fill="#242426" transform="translate(209,124)"/>
<path d="M0 0 C3.5 0.25 3.5 0.25 5.5 2.25 C5.6875 5.3125 5.6875 5.3125 5.5 8.25 C3.60511048 10.14488952 0.92860854 9.43019112 -1.58984375 9.48046875 C-3.5 9.25 -3.5 9.25 -5.5 7.25 C-5.75 4.75 -5.75 4.75 -5.5 2.25 C-3.5 0.25 -3.5 0.25 0 0 Z " fill="#222224" transform="translate(735.5,339.75)"/>
<path d="M0 0 C3.5 0.25 3.5 0.25 5.5 2.25 C5.75 4.75 5.75 4.75 5.5 7.25 C3.5 9.25 3.5 9.25 1.58984375 9.48046875 C-4.38888889 9.36111111 -4.38888889 9.36111111 -5.5 8.25 C-5.6875 5.3125 -5.6875 5.3125 -5.5 2.25 C-3.5 0.25 -3.5 0.25 0 0 Z " fill="#222224" transform="translate(269.5,123.75)"/>
<path d="M0 0 C0.33 0 0.66 0 1 0 C1 4.62 1 9.24 1 14 C0.67 14 0.34 14 0 14 C-0.2165625 12.6078125 -0.2165625 12.6078125 -0.4375 11.1875 C-0.92100111 7.99274889 -0.92100111 7.99274889 -2 5 C-1.0625 2.3125 -1.0625 2.3125 0 0 Z " fill="#D1CCB3" transform="translate(481,935)"/>
<path d="M0 0 C0.66 0 1.32 0 2 0 C2 3.96 2 7.92 2 12 C1.67 12 1.34 12 1 12 C0.7834375 10.6078125 0.7834375 10.6078125 0.5625 9.1875 C0.07899889 5.99274889 0.07899889 5.99274889 -1 3 C-0.67 2.01 -0.34 1.02 0 0 Z " fill="#B1AC99" transform="translate(814,879)"/>
</svg>
